<?xml version="1.0" encoding="utf-8"?>
<!-- Generator: Adobe Illustrator 16.0.4, SVG Export Plug-In . SVG Version: 6.00 Build 0)  -->
<!DOCTYPE svg PUBLIC "-//W3C//DTD SVG 1.1//EN" "http://www.w3.org/Graphics/SVG/1.1/DTD/svg11.dtd">
<svg version="1.1" id="Layer_1" xmlns="http://www.w3.org/2000/svg" xmlns:xlink="http://www.w3.org/1999/xlink" x="0px" y="0px"
	 width="1966px" height="519.5px" viewBox="-391.5 0 1966 519.5" enable-background="new -391.5 0 1966 519.5" xml:space="preserve"
	>
<g>
	<g>
		<path fill="#F2EF99" d="M279.88,161.456c-0.208-0.268-0.434-0.512-0.674-0.73c0.06-0.546,0.096-1.101,0.096-1.658
			c0-5.116-6.33-14.938-11.776-22.448c7.56-5.366,11.776-13.276,11.776-22.417c0-16.211-12.832-28.435-29.847-28.435H84.281
			c-17.016,0-29.847,12.228-29.847,28.435c0,8.947,4.043,16.709,11.29,22.068c-1.397,1.584-2.995,3.443-4.611,5.391
			c-8.764,10.637-9.974,14.648-9.974,17.407c0,1.838,0.342,3.624,0.981,5.327c-4.717,7.384-7.2,15.862-7.2,24.728v168.124
			c0,25.383,20.653,46.039,46.04,46.039h152.113c25.377,0,46.037-20.652,46.037-46.039V189.119
			C289.11,179.05,285.917,169.485,279.88,161.456z M278.543,357.248c0,19.559-15.915,35.475-35.474,35.475H90.963
			c-19.559,0-35.474-15.916-35.474-35.475V189.125c0-5.828,1.393-11.441,4.054-16.493c2.056,1.02,4.35,1.584,6.749,1.584
			c8.357,0,15.152-6.795,15.152-15.149c0-2.402,2.389-4.586,5.01-4.586c2.533,0,4.586,2.056,4.586,4.586
			c0,8.354,6.798,15.149,15.153,15.149c8.351,0,15.146-6.795,15.146-15.149c0-2.533,2.064-4.586,4.594-4.586
			c2.529,0,4.58,2.056,4.58,4.586c0,8.354,6.802,15.149,15.159,15.149c8.354,0,15.157-6.795,15.157-15.149
			c0-2.533,2.057-4.586,4.59-4.586c2.529,0,4.586,2.056,4.586,4.586c0,8.354,6.795,15.149,15.149,15.149
			c8.358,0,15.16-6.795,15.16-15.149c0-2.533,2.061-4.586,4.59-4.586c2.526,0,4.586,2.056,4.586,4.586
			c0,8.354,6.795,15.149,15.156,15.149c8.354,0,15.146-6.795,15.146-15.149c0-2.533,2.063-4.586,4.59-4.586
			c2.526,0,4.589,2.056,4.589,4.586c0,8.354,6.798,15.149,15.157,15.149c3.486,0,6.77-1.189,9.395-3.263
			c3.281,5.472,5.003,11.685,5.003,18.166v168.127h0.018V357.248z"/>
		<path fill="#F2EF99" d="M257.785,209.81H76.248c-2.917,0-5.281,2.367-5.281,5.282v117.641c0,2.918,2.364,5.285,5.281,5.285
			h181.537c2.917,0,5.282-2.367,5.282-5.285V215.092C263.066,212.177,260.702,209.81,257.785,209.81z M252.497,327.455H81.533
			V220.376H252.5v107.079H252.497z"/>
	</g>
	<g>
		<g transform="translate(0,-952.36218)">
			<path fill="#CAE8D9" d="M54.938,1321.503c0.312,1.105,1.198,2.031,2.287,2.389l67.399,22.119c0.511,1.66,2.391,2.766,4.089,2.408
				l68.849-14.248c1.802-0.373,3.103-2.352,2.73-4.154l-25.644-123.927c-0.373-1.803-2.353-3.104-4.155-2.73l-31.789,6.579
				l-39.577-12.901c-1.747-0.558-3.844,0.516-4.413,2.259l-39.759,120.129C54.741,1320.095,54.735,1320.829,54.938,1321.503z
				 M88.828,1311.8c1.172,5.662,6.8,9.361,12.464,8.189c5.662-1.172,9.361-6.803,8.189-12.465
				c-1.171-5.662-6.801-9.361-12.463-8.189C91.354,1300.507,87.656,1306.136,88.828,1311.8z M95.711,1310.374
				c-0.401-1.941,0.789-3.752,2.731-4.154c1.942-0.402,3.752,0.787,4.155,2.729c0.401,1.943-0.788,3.754-2.73,4.156
				C97.925,1313.505,96.113,1312.315,95.711,1310.374z M127.228,1280.518c2.548,12.316,14.688,20.295,27.005,17.746
				c12.318-2.551,20.295-14.689,17.746-27.006c-2.548-12.316-14.688-20.295-27.006-17.746
				C132.655,1256.061,124.679,1268.202,127.228,1280.518z M134.112,1279.095c-1.779-8.596,3.689-16.917,12.285-18.696
				c8.597-1.779,16.918,3.688,18.697,12.284c1.779,8.596-3.689,16.918-12.286,18.697
				C144.212,1293.159,135.891,1287.69,134.112,1279.095z M147.468,1317.614c1.172,5.662,6.801,9.361,12.463,8.191
				c5.664-1.174,9.362-6.805,8.19-12.465c-1.171-5.664-6.801-9.363-12.464-8.191C149.996,1306.321,146.297,1311.95,147.468,1317.614
				z M131.085,1238.438c1.171,5.663,6.801,9.362,12.463,8.189c5.664-1.172,9.363-6.801,8.191-12.463
				c-1.172-5.664-6.801-9.362-12.465-8.19C133.612,1227.146,129.913,1232.775,131.085,1238.438z M154.352,1316.19
				c-0.402-1.943,0.789-3.754,2.731-4.156c1.942-0.402,3.753,0.787,4.156,2.73c0.401,1.943-0.789,3.752-2.731,4.154
				C156.565,1319.321,154.753,1318.132,154.352,1316.19z M137.968,1237.014c-0.402-1.943,0.789-3.753,2.73-4.155
				c1.942-0.401,3.753,0.788,4.156,2.73c0.401,1.941-0.789,3.752-2.73,4.153C140.182,1240.145,138.37,1238.956,137.968,1237.014z"/>
		</g>
		<g transform="translate(0,-952.36218)">
			<path fill="#383E47" d="M54.938,1321.503c0.312,1.105,1.198,2.031,2.288,2.389l67.399,22.119c0.51,1.66,2.39,2.766,4.089,2.406
				l68.849-14.246c1.801-0.373,3.102-2.352,2.729-4.154l-25.644-123.927c-0.373-1.803-2.352-3.104-4.155-2.73l-31.789,6.578
				l-39.578-12.9c-1.746-0.558-3.844,0.516-4.412,2.26l-39.759,120.128C54.742,1320.095,54.736,1320.829,54.938,1321.503z
				 M62.738,1318.263l3.072-9.273c4.521,2.576,6.622,7.01,6.493,12.398L62.738,1318.263z M68.018,1302.306l26.685-80.57
				c1.414,0.229,2.858,0.307,4.256,0.241l5.677,27.432c-11.322,3.278-18.474,14.812-16.047,26.541
				c2.428,11.73,13.57,19.48,25.263,17.996l5.71,27.592c-5.722,1.539-10.635,5.465-13.383,10.959l-26.958-8.836
				C79.991,1314.817,76.084,1306.356,68.018,1302.306z M88.828,1311.8c1.172,5.662,6.802,9.361,12.464,8.189
				s9.362-6.801,8.19-12.465c-1.172-5.662-6.801-9.361-12.464-8.189S87.656,1306.136,88.828,1311.8z M95.712,1310.374
				c-0.402-1.941,0.789-3.754,2.73-4.154c1.942-0.402,3.752,0.787,4.155,2.729c0.401,1.943-0.788,3.754-2.73,4.156
				C97.926,1313.507,96.114,1312.315,95.712,1310.374z M95.474,1274.524c-1.656-8.002,3.006-15.761,10.587-18.232l6.366,30.767
				C104.489,1287.8,97.129,1282.526,95.474,1274.524z M112.98,1334.733c1.835-3.092,4.75-5.252,8.017-6.256
				c0.021,0.143,1.97,9.52,1.97,9.52L112.98,1334.733z M96.942,1214.933l3.347-10.115l10.04,3.25
				C107.389,1212.477,102.103,1215.254,96.942,1214.933z M130.731,1340.821l-2.048-9.896c5.121,0.225,9.7,3.244,11.947,7.848
				L130.731,1340.821z M127.17,1323.608l-17.164-82.94c8.335-3.233,13.767-11.466,13.45-20.396l28.13-5.821
				c3.246,8.306,11.474,13.711,20.385,13.395l17.229,83.262c-8.305,3.248-13.711,11.475-13.394,20.385l-28.13,5.82
				C144.086,1327.288,134.411,1323.905,127.17,1323.608z M108.56,1233.675l-2.048-9.896l9.898-2.048
				C116.175,1226.848,113.17,1231.438,108.56,1233.675z M127.228,1280.518c2.548,12.316,14.689,20.295,27.006,17.746
				c12.317-2.551,20.293-14.689,17.745-27.006c-2.548-12.316-14.688-20.295-27.005-17.746
				C132.656,1256.062,124.679,1268.202,127.228,1280.518z M113.693,1215.113c1.359-1.42,2.552-3.003,3.502-4.764l7.579,2.471
				L113.693,1215.113z M134.113,1279.095c-1.78-8.596,3.688-16.917,12.286-18.697c8.595-1.778,16.917,3.689,18.696,12.287
				c1.778,8.596-3.69,16.916-12.286,18.695C144.213,1293.157,135.892,1287.69,134.113,1279.095z M147.468,1317.614
				c1.172,5.662,6.802,9.361,12.464,8.189c5.663-1.172,9.362-6.801,8.19-12.465c-1.17-5.662-6.801-9.361-12.464-8.189
				C149.997,1306.321,146.297,1311.95,147.468,1317.614z M131.085,1238.438c1.171,5.663,6.802,9.362,12.464,8.189
				c5.662-1.172,9.362-6.801,8.19-12.463c-1.172-5.664-6.802-9.362-12.464-8.19C133.613,1227.145,129.913,1232.775,131.085,1238.438
				z M154.353,1316.19c-0.401-1.943,0.789-3.756,2.731-4.156c1.941-0.402,3.752,0.787,4.155,2.73
				c0.401,1.943-0.789,3.752-2.73,4.154C156.566,1319.321,154.754,1318.132,154.353,1316.19z M137.97,1237.013
				c-0.402-1.941,0.789-3.753,2.73-4.154s3.752,0.788,4.155,2.73c0.401,1.941-0.789,3.752-2.73,4.154
				C140.183,1240.145,138.371,1238.955,137.97,1237.013z M182.851,1330.034c0.236-5.098,3.213-9.686,7.796-11.932l2.048,9.896
				L182.851,1330.034z M158.632,1212.993l9.843-2.037l2.048,9.896C165.426,1220.611,160.872,1217.581,158.632,1212.993z"/>
		</g>
	</g>
	<g>
		<g transform="translate(0,-952.36218)">
			<path fill="#CAE8D9" d="M128.333,1315.354c0.216,1.127,1.021,2.123,2.076,2.572l65.266,27.789
				c0.368,1.695,2.147,2.959,3.87,2.746l69.812-8.32c1.827-0.219,3.292-2.08,3.076-3.908l-14.98-125.662
				c-0.218-1.828-2.08-3.293-3.907-3.075l-32.234,3.843l-38.332-16.23c-1.692-0.705-3.875,0.187-4.589,1.875l-49.86,116.3
				C128.257,1313.932,128.188,1314.665,128.333,1315.354z M162.927,1308.575c0.684,5.742,5.977,9.906,11.72,9.223
				c5.741-0.686,9.908-5.979,9.223-11.721c-0.684-5.742-5.978-9.906-11.719-9.225
				C166.407,1297.54,162.242,1302.831,162.927,1308.575z M169.906,1307.741c-0.233-1.969,1.107-3.672,3.077-3.906
				s3.671,1.105,3.907,3.074c0.233,1.971-1.106,3.672-3.074,3.906C171.844,1311.052,170.141,1309.71,169.906,1307.741z
				 M203.854,1280.682c1.488,12.49,12.903,21.475,25.394,19.984c12.491-1.488,21.473-12.902,19.985-25.393
				c-1.489-12.488-12.903-21.474-25.395-19.985C211.349,1256.778,202.367,1268.194,203.854,1280.682z M210.835,1279.852
				c-1.039-8.717,5.119-16.542,13.836-17.581c8.717-1.039,16.542,5.12,17.581,13.835c1.039,8.715-5.118,16.541-13.836,17.58
				C219.699,1294.727,211.875,1288.569,210.835,1279.852z M220.857,1319.37c0.686,5.74,5.978,9.908,11.72,9.225
				c5.744-0.686,9.908-5.979,9.224-11.721c-0.684-5.742-5.977-9.908-11.72-9.225C224.338,1308.335,220.173,1313.626,220.857,1319.37
				z M211.288,1239.085c0.685,5.742,5.978,9.908,11.719,9.222c5.743-0.684,9.91-5.978,9.224-11.718
				c-0.684-5.743-5.977-9.908-11.721-9.223C214.769,1228.05,210.603,1233.343,211.288,1239.085z M227.837,1318.538
				c-0.234-1.969,1.107-3.672,3.075-3.906c1.97-0.236,3.672,1.105,3.908,3.074c0.234,1.969-1.106,3.67-3.075,3.906
				C229.776,1321.847,228.072,1320.507,227.837,1318.538z M218.268,1238.253c-0.235-1.97,1.107-3.672,3.076-3.907
				c1.968-0.234,3.672,1.105,3.907,3.075c0.235,1.968-1.106,3.67-3.074,3.905C220.206,1241.562,218.502,1240.224,218.268,1238.253z"
				/>
		</g>
		<g transform="translate(0,-952.36218)">
			<path fill="#383E47" d="M128.333,1315.354c0.216,1.127,1.021,2.123,2.077,2.572l65.267,27.789
				c0.366,1.695,2.145,2.959,3.869,2.746l69.812-8.32c1.827-0.219,3.291-2.08,3.074-3.908l-14.98-125.662
				c-0.218-1.828-2.08-3.293-3.907-3.075l-32.233,3.842l-38.333-16.229c-1.692-0.705-3.875,0.187-4.588,1.876l-49.861,116.297
				C128.258,1313.932,128.189,1314.663,128.333,1315.354z M136.381,1312.788l3.851-8.977c4.286,2.953,6,7.549,5.412,12.906
				L136.381,1312.788z M143.003,1297.341l33.459-78c1.389,0.349,2.821,0.55,4.221,0.603l3.316,27.816
				c-11.561,2.3-19.671,13.182-18.252,25.076c1.418,11.895,11.858,20.566,23.636,20.084l3.335,27.979
				c-5.833,1.047-11.062,4.537-14.269,9.777l-26.105-11.104C153.865,1310.829,150.694,1302.065,143.003,1297.341z M162.927,1308.575
				c0.684,5.742,5.979,9.906,11.72,9.223c5.741-0.686,9.909-5.979,9.223-11.721c-0.684-5.742-5.978-9.906-11.719-9.225
				C166.409,1297.54,162.242,1302.831,162.927,1308.575z M169.907,1307.741c-0.234-1.969,1.106-3.672,3.076-3.906
				s3.671,1.105,3.907,3.074c0.233,1.971-1.106,3.672-3.074,3.906C171.845,1311.052,170.143,1309.71,169.907,1307.741z
				 M172.729,1272.003c-0.968-8.114,4.339-15.447,12.103-17.262l3.719,31.198C180.578,1285.999,173.695,1280.116,172.729,1272.003z
				 M185.035,1333.487c2.093-2.926,5.18-4.828,8.521-5.551c0.01,0.143,1.151,9.652,1.151,9.652L185.035,1333.487z M179.274,1212.754
				l4.198-9.793l9.725,4.095C189.892,1211.199,184.389,1213.513,179.274,1212.754z M202.203,1341.065l-1.197-10.035
				c5.083,0.66,9.387,4.059,11.233,8.838L202.203,1341.065z M200.122,1323.612l-10.027-84.103
				c8.581-2.51,14.695-10.25,15.142-19.175l28.524-3.4c2.525,8.553,10.262,14.641,19.167,15.085l10.064,84.428
				c-8.552,2.527-14.64,10.264-15.084,19.168l-28.524,3.4C216.663,1328.72,207.311,1324.524,200.122,1323.612z M189.251,1232.419
				l-1.197-10.035l10.037-1.196C197.421,1226.266,194.036,1230.583,189.251,1232.419z M203.854,1280.682
				c1.488,12.49,12.904,21.475,25.395,19.986c12.49-1.49,21.472-12.904,19.984-25.395c-1.489-12.488-12.903-21.474-25.394-19.984
				C211.35,1256.78,202.367,1268.194,203.854,1280.682z M195.949,1214.363c1.476-1.299,2.8-2.775,3.896-4.449l7.34,3.108
				L195.949,1214.363z M210.837,1279.852c-1.04-8.717,5.117-16.542,13.836-17.581c8.716-1.039,16.541,5.12,17.582,13.835
				c1.037,8.717-5.12,16.541-13.837,17.58C219.7,1294.725,211.875,1288.567,210.837,1279.852z M220.857,1319.37
				c0.686,5.74,5.979,9.908,11.722,9.223c5.743-0.684,9.907-5.977,9.223-11.719c-0.684-5.744-5.978-9.908-11.72-9.225
				C224.34,1308.335,220.173,1313.626,220.857,1319.37z M211.288,1239.085c0.685,5.742,5.979,9.908,11.721,9.222
				c5.742-0.684,9.908-5.978,9.224-11.718c-0.685-5.742-5.979-9.908-11.72-9.224
				C214.769,1228.049,210.603,1233.343,211.288,1239.085z M227.838,1318.538c-0.233-1.971,1.107-3.674,3.076-3.906
				c1.969-0.236,3.671,1.105,3.906,3.074c0.234,1.969-1.106,3.67-3.074,3.906C229.776,1321.847,228.073,1320.507,227.838,1318.538z
				 M218.27,1238.253c-0.236-1.969,1.105-3.672,3.074-3.907c1.967-0.234,3.671,1.105,3.906,3.075
				c0.235,1.968-1.106,3.67-3.074,3.906C220.206,1241.562,218.503,1240.222,218.27,1238.253z M255.052,1334.765
				c0.67-5.061,4.028-9.379,8.785-11.225l1.198,10.035L255.052,1334.765z M240.905,1216.083l9.981-1.189l1.196,10.035
				C247.023,1224.252,242.745,1220.845,240.905,1216.083z"/>
		</g>
	</g>
	<g>
		<g transform="translate(0,-952.36218)">
			<path fill="#CAE8D9" d="M276.448,1195.903c0.849-1.513,0.356-3.637-1.072-4.621l-57.738-40.117
				c-1.511-1.051-3.841-0.63-4.894,0.882l-72.208,103.93c-1.051,1.513-0.633,3.844,0.882,4.894l26.658,18.521l29.058,20.627
				c0.798,1.65,3.021,2.432,4.679,1.645 M227.161,1239.113c7.178-10.328,4.604-24.624-5.728-31.803
				c-10.33-7.176-24.625-4.601-31.802,5.729c-7.176,10.328-4.602,24.625,5.727,31.803
				C205.688,1252.018,219.984,1249.442,227.161,1239.113z M221.388,1235.101c-5.009,7.21-14.809,8.975-22.02,3.966
				c-7.208-5.009-8.971-14.809-3.964-22.019c5.007-7.208,14.808-8.973,22.018-3.965
				C224.633,1218.093,226.396,1227.892,221.388,1235.101z M240.124,1198.892c3.298-4.75,2.105-11.379-2.644-14.678
				c-4.751-3.303-11.379-2.105-14.678,2.641c-3.299,4.751-2.105,11.379,2.643,14.68
				C230.195,1204.835,236.822,1203.641,240.124,1198.892z M193.989,1265.293c3.3-4.751,2.105-11.38-2.644-14.677
				c-4.749-3.3-11.379-2.107-14.679,2.642c-3.298,4.748-2.104,11.377,2.645,14.678
				C184.061,1271.237,190.689,1270.04,193.989,1265.293z M234.351,1194.881c-1.131,1.628-3.266,2.012-4.893,0.88
				c-1.63-1.129-2.014-3.262-0.882-4.892c1.132-1.629,3.264-2.012,4.893-0.882C235.097,1191.12,235.481,1193.253,234.351,1194.881z
				 M188.217,1261.279c-1.133,1.629-3.265,2.014-4.893,0.883c-1.627-1.132-2.015-3.263-0.882-4.893
				c1.129-1.628,3.262-2.011,4.891-0.882C188.964,1257.519,189.35,1259.652,188.217,1261.279z"/>
		</g>
		<g transform="translate(0,-952.36218)">
			<path fill="#383E47" d="M276.445,1195.901c0.852-1.511,0.359-3.635-1.07-4.621l-57.738-40.116
				c-1.512-1.049-3.84-0.629-4.893,0.883l-72.208,103.93c-1.051,1.513-0.633,3.844,0.88,4.892l26.658,18.522l29.06,20.627
				c0.798,1.65,3.021,2.432,4.679,1.643 M246.107,1239.567l16.077-23.139 M224.169,1271.143l17.927-25.8 M266.228,1210.607
				c0.089-0.114,5.546-7.983,5.546-7.983 M268.477,1195.048l-5.766,8.3c-3.365-3.868-4.327-9.266-2.536-14.066L268.477,1195.048z
				 M258.449,1209.482l-48.326,69.56c-8.085-3.82-17.795-2.086-24.055,4.289l-23.588-16.387c3.788-8.075,2.043-17.763-4.324-24.006
				l48.515-69.83c8.073,3.79,17.761,2.043,24.005-4.322l23.592,16.391C249.466,1194.683,253.677,1204.028,258.449,1209.482z
				 M206.045,1284.905l-5.765,8.301l-8.3-5.768C195.852,1284.083,201.248,1283.102,206.045,1284.905z M227.161,1239.113
				c7.178-10.328,4.603-24.625-5.728-31.802c-10.33-7.176-24.625-4.601-31.802,5.728c-7.176,10.328-4.602,24.625,5.726,31.803
				C205.688,1252.018,219.984,1249.442,227.161,1239.113z M221.388,1235.1c-5.009,7.209-14.81,8.976-22.02,3.967
				c-7.208-5.008-8.973-14.81-3.965-22.018c5.01-7.209,14.809-8.973,22.017-3.965C224.63,1218.093,226.396,1227.892,221.388,1235.1z
				 M240.124,1198.892c3.298-4.75,2.105-11.38-2.646-14.679c-4.75-3.302-11.375-2.104-14.677,2.645
				c-3.302,4.749-2.105,11.377,2.643,14.678C230.193,1204.835,236.822,1203.641,240.124,1198.892z M193.989,1265.293
				c3.3-4.751,2.105-11.38-2.645-14.678c-4.748-3.299-11.378-2.106-14.675,2.643c-3.302,4.748-2.105,11.377,2.643,14.676
				C184.06,1271.237,190.689,1270.04,193.989,1265.293z M234.351,1194.881c-1.133,1.628-3.266,2.013-4.895,0.881
				c-1.629-1.13-2.013-3.263-0.88-4.893c1.132-1.629,3.264-2.012,4.892-0.882C235.097,1191.118,235.481,1193.251,234.351,1194.881z
				 M188.216,1261.279c-1.129,1.629-3.266,2.016-4.895,0.882c-1.625-1.13-2.012-3.262-0.879-4.892
				c1.129-1.628,3.262-2.011,4.891-0.882C188.964,1257.519,189.349,1259.652,188.216,1261.279z M224.767,1164.68
				c-3.86,3.34-9.237,4.34-14.021,2.566l5.765-8.301L224.767,1164.68z M156.568,1262.838l-8.254-5.736l5.767-8.3
				C157.415,1252.665,158.354,1258.055,156.568,1262.838z"/>
		</g>
	</g>
	<g>
		<g transform="translate(0,-952.36218)">
			<path fill="#CAE8D9" d="M141.365,1129.802c-0.632-1.616-2.587-2.58-4.254-2.097l-67.609,19.287
				c-1.771,0.505-2.921,2.575-2.417,4.346l34.721,121.695c0.505,1.771,2.575,2.924,4.346,2.416l31.216-8.907l34.364-9.428
				c1.783,0.426,3.796-0.799,4.235-2.581 M143.604,1195.309c-3.45-12.095-16.144-19.155-28.242-15.704
				c-12.096,3.452-19.153,16.147-15.704,28.243c3.451,12.093,16.146,19.154,28.243,15.705
				C139.996,1220.101,147.054,1207.405,143.604,1195.309z M136.842,1197.237c2.41,8.442-2.43,17.145-10.872,19.554
				c-8.44,2.407-17.144-2.433-19.553-10.873c-2.408-8.44,2.431-17.143,10.873-19.553
				C125.733,1183.956,134.434,1188.796,136.842,1197.237z M120.681,1159.808c-1.588-5.56-7.474-8.835-13.035-7.248
				c-5.565,1.586-8.834,7.475-7.25,13.034c1.587,5.562,7.474,8.835,13.036,7.25C118.993,1171.257,122.266,1165.371,120.681,1159.808
				z M142.863,1237.56c-1.588-5.561-7.475-8.833-13.035-7.246c-5.561,1.586-8.835,7.473-7.249,13.034
				c1.587,5.558,7.474,8.832,13.035,7.246C141.176,1249.008,144.448,1243.121,142.863,1237.56z M113.92,1161.737
				c0.543,1.907-0.511,3.803-2.418,4.345c-1.906,0.546-3.8-0.507-4.345-2.415c-0.543-1.907,0.51-3.801,2.416-4.346
				C111.481,1158.779,113.375,1159.831,113.92,1161.737z M136.102,1239.488c0.544,1.909-0.509,3.801-2.415,4.345
				c-1.907,0.542-3.802-0.508-4.346-2.416c-0.545-1.905,0.51-3.798,2.415-4.343C133.664,1236.529,135.559,1237.579,136.102,1239.488
				z"/>
		</g>
		<g transform="translate(0,-952.36218)">
			<path fill="#383E47" d="M141.363,1129.803c-0.63-1.617-2.585-2.581-4.255-2.097L69.5,1146.993
				c-1.769,0.506-2.919,2.575-2.415,4.346l34.721,121.695c0.505,1.771,2.575,2.924,4.345,2.416l31.214-8.905l34.366-9.43
				c1.783,0.426,3.796-0.799,4.235-2.582 M155.951,1180.933l-7.729-27.095 M166.5,1217.907l-8.62-30.211 M146.277,1147.021
				c-0.033-0.142-2.668-9.347-2.668-9.347 M135.658,1135.43l2.772,9.717c-5.124,0.155-9.911-2.518-12.492-6.944L135.658,1135.43z
				 M140.48,1152.33l23.239,81.45c-8.074,3.838-12.883,12.451-11.91,21.334l-27.622,7.88c-3.85-8.044-12.454-12.828-21.317-11.854
				l-23.33-81.765c8.045-3.85,12.828-12.455,11.854-21.317l27.625-7.881C123.337,1149.912,133.237,1152.571,140.48,1152.33z
				 M165.676,1240.647l2.775,9.72l-9.72,2.771C158.586,1248.017,161.243,1243.218,165.676,1240.647z M143.604,1195.309
				c-3.45-12.095-16.145-19.154-28.242-15.703c-12.096,3.451-19.153,16.146-15.704,28.242c3.451,12.093,16.146,19.154,28.242,15.704
				C139.995,1220.1,147.054,1207.405,143.604,1195.309z M136.842,1197.236c2.408,8.442-2.43,17.146-10.873,19.555
				c-8.439,2.408-17.145-2.432-19.553-10.872c-2.408-8.443,2.432-17.144,10.874-19.553
				C125.731,1183.959,134.434,1188.797,136.842,1197.236z M120.681,1159.808c-1.588-5.56-7.476-8.834-13.036-7.247
				c-5.564,1.585-8.833,7.472-7.247,13.035c1.585,5.562,7.473,8.834,13.034,7.248
				C118.992,1171.258,122.266,1165.371,120.681,1159.808z M142.863,1237.56c-1.588-5.561-7.475-8.833-13.036-7.246
				c-5.56,1.585-8.834,7.473-7.247,13.032c1.585,5.563,7.473,8.834,13.034,7.248C141.177,1249.01,144.448,1243.121,142.863,1237.56z
				 M113.919,1161.738c0.543,1.908-0.51,3.803-2.417,4.346c-1.906,0.544-3.8-0.509-4.345-2.417c-0.543-1.907,0.51-3.801,2.415-4.345
				C111.48,1158.777,113.375,1159.83,113.919,1161.738z M136.102,1239.489c0.545,1.905-0.509,3.801-2.417,4.344
				c-1.905,0.542-3.8-0.509-4.344-2.417c-0.545-1.905,0.51-3.798,2.415-4.343C133.664,1236.529,135.559,1237.58,136.102,1239.489z
				 M84.476,1150.033c0.142,5.102-2.489,9.898-6.891,12.476l-2.774-9.717L84.476,1150.033z M117.268,1264.969l-9.667,2.756
				l-2.772-9.717C109.931,1257.874,114.696,1260.558,117.268,1264.969z"/>
		</g>
	</g>
	<g>
		<path fill="#383E47" d="M279.88,161.455c-0.208-0.268-0.434-0.512-0.674-0.73c0.06-0.546,0.096-1.101,0.096-1.658
			c0-5.115-6.33-14.938-11.776-22.448c7.56-5.366,11.776-13.276,11.776-22.417c0-16.211-12.832-28.436-29.847-28.436H84.281
			c-17.016,0-29.847,12.228-29.847,28.436c0,8.947,4.043,16.708,11.29,22.067c-1.397,1.584-2.995,3.443-4.611,5.391
			c-8.764,10.637-9.974,14.648-9.974,17.407c0,1.838,0.342,3.624,0.981,5.328c-4.717,7.384-7.2,15.862-7.2,24.728v168.122
			c0,25.385,20.653,46.041,46.04,46.041h152.113c25.377,0,46.037-20.652,46.037-46.041V189.118
			C289.11,179.049,285.917,169.485,279.88,161.455z M76.255,140.351h157.917c2.915,0,5.285-2.364,5.285-5.282
			c0-2.914-2.371-5.285-5.285-5.285c0,0-155.666,0-158.901,0c-3.234,0-10.27-7.162-10.27-15.58c0-10.189,8.291-17.866,19.277-17.866
			h165.174c10.99,0,19.277,7.68,19.277,17.866c0,8.993-6.125,13.703-11.264,16.067c-2.259,1.041-3.479,3.503-2.95,5.934
			c0.236,1.087,0.8,2.032,1.566,2.745c6.396,8.422,12.204,17.697,12.648,20.237c-0.014,0.579-0.138,1.14-0.36,1.672l0,0
			c-0.723,1.701-2.381,2.798-4.237,2.798c-2.53,0-4.587-2.053-4.587-4.583c0-8.354-6.795-15.153-15.156-15.153
			c-8.351,0-15.153,6.798-15.153,15.153c0,2.53-2.063,4.583-4.583,4.583c-2.53,0-4.583-2.053-4.583-4.583
			c0-8.354-6.805-15.153-15.163-15.153c-8.351,0-15.156,6.798-15.156,15.153c0,2.53-2.053,4.583-4.583,4.583
			c-2.537,0-4.59-2.053-4.59-4.583c0-8.354-6.798-15.153-15.153-15.153c-8.358,0-15.156,6.798-15.156,15.153
			c0,2.53-2.06,4.583-4.583,4.583c-2.534,0-4.59-2.053-4.59-4.583c0-8.354-6.795-15.153-15.149-15.153
			c-8.357,0-15.159,6.798-15.159,15.153c0,2.53-2.057,4.583-4.58,4.583c-2.533,0-4.587-2.053-4.587-4.583
			c0-8.354-6.798-15.153-15.156-15.153c-8.439,0-15.58,6.943-15.58,15.153c0,2.53-2.057,4.583-4.583,4.583
			c-1.852,0-3.51-1.097-4.233-2.798l0,0c-0.205-0.494-0.321-1.016-0.35-1.552C62.479,156.664,68.892,148.334,76.255,140.351z
			 M278.543,357.248c0,19.559-15.915,35.475-35.474,35.475H90.963c-19.559,0-35.474-15.916-35.474-35.475V189.125
			c0-5.829,1.393-11.441,4.054-16.494c2.056,1.02,4.35,1.584,6.749,1.584c8.357,0,15.152-6.795,15.152-15.149
			c0-2.402,2.389-4.586,5.01-4.586c2.533,0,4.586,2.057,4.586,4.586c0,8.354,6.798,15.149,15.153,15.149
			c8.351,0,15.146-6.795,15.146-15.149c0-2.533,2.064-4.586,4.594-4.586c2.529,0,4.58,2.057,4.58,4.586
			c0,8.354,6.802,15.149,15.159,15.149c8.354,0,15.157-6.795,15.157-15.149c0-2.533,2.057-4.586,4.59-4.586
			c2.529,0,4.586,2.057,4.586,4.586c0,8.354,6.795,15.149,15.149,15.149c8.358,0,15.16-6.795,15.16-15.149
			c0-2.533,2.061-4.586,4.59-4.586c2.526,0,4.586,2.057,4.586,4.586c0,8.354,6.795,15.149,15.156,15.149
			c8.354,0,15.146-6.795,15.146-15.149c0-2.533,2.063-4.586,4.59-4.586c2.526,0,4.589,2.057,4.589,4.586
			c0,8.354,6.798,15.149,15.157,15.149c3.486,0,6.77-1.189,9.395-3.263c3.281,5.472,5.003,11.685,5.003,18.166v168.126h0.018
			V357.248z"/>
		<path fill="#383E47" d="M257.785,209.81H76.248c-2.917,0-5.281,2.368-5.281,5.282v117.641c0,2.918,2.364,5.285,5.281,5.285
			h181.537c2.917,0,5.282-2.367,5.282-5.285V215.091C263.066,212.177,260.702,209.81,257.785,209.81z M252.497,327.455H81.533
			V220.376H252.5v107.079H252.497z"/>
	</g>
	<rect x="81.533" y="220.376" fill="#FFFFFF" width="170.967" height="107.079"/>
</g>
<g id="dollar">
	<path fill="#383E47" d="M162.117,311.617v-8.779c-6.191-0.277-12.197-1.94-15.708-3.973l2.772-10.811
		c3.881,2.125,9.333,4.065,15.339,4.065c5.267,0,8.871-2.032,8.871-5.729c0-3.511-2.957-5.729-9.794-8.039
		c-9.887-3.327-16.632-7.946-16.632-16.91c0-8.131,5.729-14.507,15.616-16.448v-8.778h9.056v8.132
		c6.191,0.277,10.349,1.571,13.398,3.049l-2.68,10.442c-2.402-1.017-6.653-3.142-13.306-3.142c-6.006,0-7.946,2.587-7.946,5.175
		c0,3.049,3.234,4.99,11.088,7.947c10.996,3.88,15.431,8.963,15.431,17.279c0,8.224-5.821,15.247-16.448,17.094v9.426H162.117z"/>
</g>
<g>
	<g>
		<path fill="#F2EF99" d="M703.853,161.454c-0.209-0.268-0.434-0.512-0.675-0.73c0.061-0.546,0.096-1.101,0.096-1.658
			c0-5.116-6.329-14.938-11.775-22.449c7.56-5.366,11.775-13.276,11.775-22.417c0-16.211-12.831-28.436-29.847-28.436H508.253
			c-17.015,0-29.846,12.228-29.846,28.436c0,8.947,4.043,16.708,11.29,22.068c-1.397,1.583-2.996,3.443-4.611,5.391
			c-8.764,10.637-9.974,14.648-9.974,17.407c0,1.838,0.342,3.623,0.981,5.327c-4.717,7.384-7.2,15.862-7.2,24.728v168.125
			c0,25.383,20.652,46.039,46.039,46.039h152.112c25.379,0,46.038-20.652,46.038-46.039V189.117
			C713.082,179.048,709.89,169.483,703.853,161.454z M702.515,357.248c0,19.559-15.914,35.475-35.473,35.475H514.937
			c-19.559,0-35.474-15.916-35.474-35.475V189.124c0-5.829,1.394-11.441,4.054-16.494c2.057,1.02,4.35,1.584,6.75,1.584
			c8.357,0,15.152-6.795,15.152-15.149c0-2.403,2.389-4.586,5.009-4.586c2.534,0,4.587,2.057,4.587,4.586
			c0,8.354,6.798,15.149,15.153,15.149c8.351,0,15.146-6.795,15.146-15.149c0-2.533,2.063-4.586,4.594-4.586
			c2.529,0,4.579,2.057,4.579,4.586c0,8.354,6.802,15.149,15.16,15.149c8.354,0,15.156-6.795,15.156-15.149
			c0-2.533,2.058-4.586,4.59-4.586c2.529,0,4.587,2.057,4.587,4.586c0,8.354,6.795,15.149,15.148,15.149
			c8.358,0,15.161-6.795,15.161-15.149c0-2.533,2.061-4.586,4.59-4.586c2.525,0,4.586,2.057,4.586,4.586
			c0,8.354,6.795,15.149,15.155,15.149c8.354,0,15.145-6.795,15.145-15.149c0-2.533,2.064-4.586,4.592-4.586
			c2.525,0,4.59,2.057,4.59,4.586c0,8.354,6.797,15.149,15.156,15.149c3.484,0,6.77-1.189,9.395-3.263
			c3.281,5.472,5.002,11.685,5.002,18.166v168.129h0.018V357.248z"/>
		<path fill="#F2EF99" d="M681.757,209.809H500.221c-2.917,0-5.281,2.367-5.281,5.281v117.643c0,2.916,2.364,5.285,5.281,5.285
			h181.536c2.918,0,5.281-2.369,5.281-5.285V215.09C687.038,212.176,684.675,209.809,681.757,209.809z M676.469,327.455H505.505
			V220.375h170.966v107.081H676.469z"/>
	</g>
	<g>
		<g transform="translate(0,-952.36218)">
			<path fill="#CAE8D9" d="M478.911,1321.503c0.311,1.105,1.197,2.029,2.287,2.387l67.398,22.121
				c0.511,1.66,2.391,2.764,4.089,2.406l68.85-14.246c1.801-0.373,3.102-2.352,2.729-4.156l-25.644-123.926
				c-0.374-1.803-2.353-3.104-4.155-2.731l-31.79,6.579l-39.576-12.902c-1.747-0.558-3.844,0.517-4.413,2.26l-39.758,120.13
				C478.714,1320.095,478.708,1320.829,478.911,1321.503z M512.801,1311.798c1.172,5.662,6.8,9.363,12.463,8.189
				c5.663-1.172,9.361-6.801,8.189-12.463c-1.172-5.664-6.8-9.361-12.463-8.191C515.327,1300.507,511.629,1306.136,512.801,1311.798
				z M519.683,1310.374c-0.4-1.941,0.791-3.754,2.732-4.156c1.942-0.402,3.753,0.789,4.155,2.73c0.4,1.941-0.789,3.754-2.73,4.154
				C521.896,1313.505,520.085,1312.315,519.683,1310.374z M551.2,1280.518c2.548,12.316,14.688,20.293,27.006,17.746
				c12.318-2.551,20.294-14.689,17.746-27.006c-2.548-12.318-14.689-20.296-27.007-17.747
				C556.627,1256.059,548.651,1268.2,551.2,1280.518z M558.085,1279.095c-1.779-8.598,3.688-16.92,12.285-18.698
				c8.597-1.779,16.918,3.688,18.696,12.286c1.779,8.596-3.688,16.918-12.285,18.695
				C568.184,1293.157,559.863,1287.69,558.085,1279.095z M571.441,1317.614c1.171,5.66,6.8,9.361,12.463,8.189
				c5.664-1.172,9.362-6.803,8.19-12.463c-1.171-5.666-6.8-9.363-12.464-8.193C573.967,1306.321,570.269,1311.95,571.441,1317.614z
				 M555.058,1238.436c1.172,5.664,6.801,9.362,12.463,8.19c5.663-1.172,9.363-6.801,8.191-12.463
				c-1.173-5.663-6.802-9.362-12.466-8.189C557.584,1227.144,553.885,1232.773,555.058,1238.436z M578.325,1316.188
				c-0.402-1.941,0.789-3.754,2.73-4.156c1.943-0.4,3.753,0.789,4.156,2.73c0.401,1.943-0.789,3.754-2.731,4.156
				C580.538,1319.319,578.727,1318.13,578.325,1316.188z M561.94,1237.012c-0.401-1.943,0.79-3.753,2.731-4.155
				c1.941-0.401,3.753,0.788,4.155,2.731c0.402,1.941-0.789,3.752-2.73,4.153C564.155,1240.143,562.342,1238.955,561.94,1237.012z"
				/>
		</g>
		<g transform="translate(0,-952.36218)">
			<path fill="#383E47" d="M478.911,1321.503c0.311,1.105,1.197,2.029,2.288,2.387l67.399,22.121c0.51,1.66,2.39,2.764,4.089,2.406
				l68.849-14.246c1.8-0.373,3.101-2.352,2.729-4.156l-25.644-123.926c-0.374-1.803-2.352-3.104-4.155-2.731l-31.789,6.578
				l-39.578-12.901c-1.746-0.558-3.844,0.517-4.412,2.261l-39.759,120.129C478.715,1320.095,478.709,1320.829,478.911,1321.503z
				 M486.711,1318.263l3.072-9.275c4.522,2.576,6.622,7.01,6.493,12.4L486.711,1318.263z M491.991,1302.306l26.685-80.572
				c1.414,0.23,2.857,0.308,4.256,0.241l5.677,27.431c-11.322,3.278-18.474,14.812-16.047,26.543
				c2.427,11.73,13.569,19.48,25.263,17.996l5.709,27.592c-5.722,1.539-10.634,5.463-13.382,10.959l-26.957-8.838
				C503.963,1314.817,500.057,1306.356,491.991,1302.306z M512.801,1311.798c1.172,5.662,6.802,9.363,12.463,8.189
				c5.663-1.172,9.362-6.801,8.191-12.465c-1.172-5.662-6.802-9.359-12.465-8.189
				C515.329,1300.507,511.629,1306.136,512.801,1311.798z M519.685,1310.374c-0.402-1.941,0.789-3.754,2.73-4.156
				c1.942-0.402,3.753,0.789,4.155,2.73c0.4,1.941-0.789,3.754-2.73,4.154C521.898,1313.505,520.086,1312.315,519.685,1310.374z
				 M519.447,1274.522c-1.656-8,3.006-15.761,10.586-18.231l6.367,30.767C528.462,1287.8,521.103,1282.526,519.447,1274.522z
				 M536.954,1334.733c1.834-3.092,4.748-5.252,8.016-6.258c0.022,0.145,1.97,9.52,1.97,9.52L536.954,1334.733z M520.915,1214.932
				l3.347-10.116l10.04,3.251C531.362,1212.476,526.075,1215.252,520.915,1214.932z M554.704,1340.821l-2.048-9.898
				c5.12,0.225,9.699,3.244,11.946,7.85L554.704,1340.821z M551.142,1323.608l-17.164-82.941
				c8.336-3.233,13.768-11.466,13.45-20.396l28.13-5.821c3.246,8.306,11.474,13.711,20.385,13.395l17.229,83.264
				c-8.306,3.246-13.711,11.475-13.395,20.383l-28.131,5.822C568.059,1327.286,558.384,1323.903,551.142,1323.608z
				 M532.532,1233.674l-2.048-9.896l9.898-2.048C540.147,1226.846,537.142,1231.436,532.532,1233.674z M551.2,1280.518
				c2.548,12.316,14.689,20.293,27.006,17.746c12.318-2.551,20.294-14.689,17.746-27.006c-2.548-12.318-14.689-20.296-27.006-17.747
				S548.651,1268.2,551.2,1280.518z M537.666,1215.112c1.359-1.42,2.552-3.003,3.501-4.764l7.58,2.471L537.666,1215.112z
				 M558.086,1279.095c-1.78-8.598,3.688-16.92,12.286-18.698c8.596-1.779,16.917,3.688,18.696,12.286
				c1.777,8.598-3.69,16.918-12.286,18.695C568.186,1293.157,559.863,1287.69,558.086,1279.095z M571.441,1317.614
				c1.171,5.66,6.802,9.361,12.464,8.189c5.663-1.172,9.361-6.803,8.189-12.465c-1.17-5.664-6.8-9.361-12.463-8.191
				C573.969,1306.321,570.269,1311.95,571.441,1317.614z M555.058,1238.436c1.172,5.664,6.802,9.362,12.463,8.19
				c5.663-1.172,9.363-6.801,8.191-12.463c-1.172-5.663-6.802-9.362-12.463-8.19
				C557.586,1227.143,553.885,1232.773,555.058,1238.436z M578.325,1316.188c-0.401-1.941,0.79-3.754,2.731-4.156
				c1.941-0.4,3.751,0.789,4.155,2.73c0.401,1.943-0.789,3.754-2.73,4.156C580.538,1319.319,578.727,1318.13,578.325,1316.188z
				 M561.943,1237.012c-0.403-1.941,0.788-3.753,2.729-4.155s3.753,0.788,4.155,2.731c0.402,1.941-0.789,3.752-2.73,4.154
				C564.155,1240.143,562.344,1238.953,561.943,1237.012z M606.824,1330.034c0.234-5.1,3.213-9.686,7.795-11.932l2.049,9.895
				L606.824,1330.034z M582.605,1212.992l9.842-2.037l2.048,9.896C589.399,1220.609,584.845,1217.579,582.605,1212.992z"/>
		</g>
	</g>
	<g>
		<g transform="translate(0,-952.36218)">
			<path fill="#CAE8D9" d="M552.306,1315.352c0.216,1.127,1.02,2.125,2.075,2.572l65.266,27.791
				c0.369,1.695,2.148,2.957,3.871,2.746l69.81-8.322c1.828-0.217,3.293-2.078,3.076-3.908l-14.98-125.662
				c-0.219-1.828-2.08-3.293-3.907-3.075l-32.233,3.844l-38.331-16.231c-1.693-0.705-3.875,0.187-4.59,1.875l-49.861,116.3
				C552.229,1313.932,552.161,1314.665,552.306,1315.352z M586.899,1308.573c0.685,5.742,5.978,9.908,11.72,9.225
				c5.742-0.686,9.908-5.98,9.223-11.721c-0.684-5.744-5.977-9.908-11.718-9.225C590.38,1297.538,586.215,1302.831,586.899,1308.573
				z M593.879,1307.741c-0.233-1.969,1.107-3.672,3.076-3.908c1.97-0.234,3.671,1.107,3.908,3.076
				c0.232,1.969-1.106,3.672-3.075,3.906C595.816,1311.05,594.114,1309.708,593.879,1307.741z M627.828,1280.682
				c1.487,12.49,12.902,21.475,25.392,19.984c12.49-1.49,21.473-12.904,19.985-25.395c-1.489-12.487-12.903-21.473-25.396-19.985
				C635.321,1256.775,626.339,1268.194,627.828,1280.682z M634.809,1279.852c-1.039-8.717,5.119-16.543,13.835-17.583
				c8.717-1.039,16.541,5.12,17.58,13.837c1.039,8.715-5.118,16.539-13.837,17.58
				C643.672,1294.725,635.848,1288.567,634.809,1279.852z M644.829,1319.37c0.686,5.74,5.978,9.906,11.72,9.223
				c5.745-0.684,9.907-5.979,9.224-11.721c-0.685-5.742-5.977-9.908-11.721-9.225C648.31,1308.333,644.146,1313.626,644.829,1319.37
				z M635.26,1239.083c0.686,5.742,5.979,9.908,11.719,9.223c5.743-0.684,9.909-5.979,9.224-11.719
				c-0.685-5.743-5.977-9.908-11.72-9.223C638.742,1228.049,634.576,1233.341,635.26,1239.083z M651.809,1318.536
				c-0.233-1.969,1.107-3.672,3.076-3.906c1.97-0.236,3.673,1.105,3.907,3.076c0.234,1.969-1.105,3.67-3.074,3.906
				C653.747,1321.847,652.044,1320.505,651.809,1318.536z M642.24,1238.251c-0.234-1.97,1.106-3.671,3.074-3.907
				c1.969-0.233,3.673,1.105,3.907,3.075c0.235,1.969-1.105,3.671-3.074,3.905C644.18,1241.561,642.475,1240.223,642.24,1238.251z"
				/>
		</g>
		<g transform="translate(0,-952.36218)">
			<path fill="#383E47" d="M552.306,1315.352c0.216,1.127,1.02,2.125,2.075,2.574l65.269,27.789
				c0.366,1.695,2.146,2.957,3.869,2.746l69.811-8.322c1.826-0.219,3.291-2.078,3.074-3.908l-14.98-125.662
				c-0.219-1.828-2.079-3.292-3.907-3.075l-32.232,3.842l-38.332-16.23c-1.693-0.705-3.875,0.187-4.589,1.876l-49.861,116.299
				C552.23,1313.932,552.162,1314.663,552.306,1315.352z M560.354,1312.788l3.851-8.977c4.285,2.953,6,7.547,5.412,12.906
				L560.354,1312.788z M566.976,1297.341l33.459-78.002c1.39,0.349,2.822,0.549,4.222,0.603l3.316,27.816
				c-11.562,2.3-19.672,13.182-18.252,25.077c1.417,11.895,11.858,20.566,23.635,20.084l3.335,27.979
				c-5.832,1.045-11.062,4.537-14.268,9.777l-26.105-11.105C577.838,1310.829,574.666,1302.063,566.976,1297.341z M586.899,1308.573
				c0.685,5.742,5.979,9.908,11.72,9.225c5.742-0.686,9.909-5.979,9.223-11.723c-0.684-5.74-5.977-9.906-11.718-9.223
				C590.382,1297.538,586.215,1302.831,586.899,1308.573z M593.88,1307.741c-0.235-1.969,1.106-3.672,3.075-3.908
				c1.97-0.234,3.671,1.107,3.908,3.076c0.232,1.969-1.106,3.672-3.075,3.906C595.818,1311.052,594.116,1309.71,593.88,1307.741z
				 M596.701,1272.001c-0.968-8.114,4.34-15.446,12.104-17.263l3.719,31.198C604.551,1285.999,597.667,1280.116,596.701,1272.001z
				 M609.008,1333.485c2.094-2.924,5.18-4.828,8.521-5.551c0.009,0.145,1.15,9.652,1.15,9.652L609.008,1333.485z M603.247,1212.752
				l4.197-9.793l9.726,4.096C613.865,1211.197,608.361,1213.512,603.247,1212.752z M626.175,1341.065l-1.196-10.037
				c5.083,0.66,9.387,4.059,11.232,8.84L626.175,1341.065z M624.096,1323.612l-10.027-84.104c8.58-2.511,14.694-10.25,15.142-19.175
				l28.522-3.4c2.525,8.552,10.263,14.64,19.167,15.085l10.064,84.43c-8.551,2.525-14.639,10.264-15.085,19.168l-28.522,3.4
				C640.636,1328.72,631.284,1324.524,624.096,1323.612z M613.224,1232.417l-1.196-10.035l10.036-1.196
				C621.394,1226.264,618.009,1230.581,613.224,1232.417z M627.828,1280.682c1.487,12.49,12.903,21.475,25.393,19.984
				s21.472-12.904,19.984-25.395c-1.489-12.487-12.903-21.473-25.394-19.983C635.322,1256.779,626.339,1268.194,627.828,1280.682z
				 M619.922,1214.361c1.477-1.299,2.799-2.775,3.896-4.448l7.34,3.108L619.922,1214.361z M634.811,1279.852
				c-1.041-8.717,5.117-16.543,13.835-17.583c8.715-1.039,16.539,5.12,17.58,13.837c1.037,8.717-5.12,16.539-13.838,17.578
				C643.674,1294.724,635.848,1288.567,634.811,1279.852z M644.829,1319.37c0.686,5.74,5.979,9.908,11.721,9.223
				c5.744-0.684,9.906-5.979,9.223-11.721s-5.977-9.908-11.719-9.225C648.312,1308.333,644.146,1313.626,644.829,1319.37z
				 M635.26,1239.083c0.686,5.742,5.979,9.908,11.72,9.223c5.742-0.684,9.908-5.979,9.225-11.719
				c-0.686-5.742-5.979-9.908-11.72-9.224C638.742,1228.047,634.576,1233.341,635.26,1239.083z M651.81,1318.538
				c-0.233-1.971,1.107-3.676,3.076-3.908c1.969-0.236,3.672,1.105,3.906,3.076c0.234,1.969-1.105,3.67-3.073,3.906
				C653.749,1321.847,652.045,1320.507,651.81,1318.538z M642.242,1238.251c-0.236-1.969,1.104-3.672,3.073-3.907
				c1.968-0.233,3.672,1.105,3.906,3.075c0.235,1.969-1.105,3.671-3.074,3.906C644.18,1241.561,642.476,1240.22,642.242,1238.251z
				 M679.024,1334.765c0.67-5.061,4.027-9.379,8.783-11.225l1.198,10.035L679.024,1334.765z M664.876,1216.081l9.982-1.189
				l1.195,10.035C670.995,1224.25,666.716,1220.843,664.876,1216.081z"/>
		</g>
	</g>
	<g>
		<g transform="translate(0,-952.36218)">
			<path fill="#CAE8D9" d="M696.499,1171.2c0.85-1.513,0.357-3.638-1.072-4.621l-57.736-40.117c-1.512-1.051-3.842-0.63-4.895,0.882
				l-72.207,103.93c-1.051,1.513-0.633,3.844,0.882,4.894l26.659,18.521l29.058,20.627c0.798,1.65,3.021,2.432,4.678,1.645
				 M647.212,1214.409c7.178-10.328,4.605-24.624-5.726-31.802c-10.331-7.176-24.625-4.601-31.803,5.729
				c-7.175,10.328-4.602,24.625,5.728,31.803C625.74,1227.314,640.037,1224.739,647.212,1214.409z M641.441,1210.397
				c-5.01,7.21-14.811,8.975-22.021,3.966c-7.208-5.009-8.972-14.81-3.964-22.019c5.007-7.208,14.809-8.973,22.018-3.965
				C644.686,1193.39,646.448,1203.188,641.441,1210.397z M660.176,1174.188c3.298-4.75,2.105-11.378-2.644-14.677
				c-4.752-3.303-11.38-2.105-14.678,2.641c-3.299,4.751-2.105,11.379,2.642,14.68
				C650.247,1180.131,656.874,1178.937,660.176,1174.188z M614.043,1240.59c3.3-4.751,2.105-11.38-2.645-14.678
				c-4.748-3.3-11.379-2.108-14.678,2.642c-3.299,4.748-2.104,11.378,2.644,14.678
				C604.113,1246.533,610.742,1245.337,614.043,1240.59z M654.402,1170.177c-1.131,1.628-3.267,2.013-4.894,0.88
				c-1.629-1.13-2.014-3.262-0.882-4.892c1.132-1.629,3.265-2.012,4.894-0.882C655.148,1166.416,655.532,1168.549,654.402,1170.177z
				 M608.27,1236.576c-1.133,1.63-3.264,2.014-4.893,0.883c-1.627-1.132-2.014-3.264-0.882-4.893
				c1.13-1.628,3.263-2.011,4.891-0.882C609.017,1232.816,609.402,1234.949,608.27,1236.576z"/>
		</g>
		<g transform="translate(0,-952.36218)">
			<path fill="#383E47" d="M696.497,1171.197c0.852-1.511,0.359-3.635-1.071-4.621l-57.736-40.116
				c-1.512-1.049-3.841-0.628-4.894,0.883l-72.207,103.93c-1.051,1.513-0.633,3.844,0.88,4.893l26.658,18.523l29.06,20.627
				c0.798,1.65,3.021,2.432,4.678,1.645 M666.159,1214.863l16.076-23.139 M644.222,1246.44l17.926-25.8 M686.279,1185.903
				c0.089-0.114,5.547-7.983,5.547-7.983 M688.528,1170.345l-5.766,8.3c-3.364-3.868-4.326-9.266-2.535-14.066L688.528,1170.345z
				 M678.5,1184.778l-48.324,69.56c-8.085-3.819-17.796-2.086-24.055,4.291l-23.59-16.389c3.789-8.075,2.044-17.763-4.323-24.007
				l48.514-69.83c8.074,3.79,17.762,2.043,24.005-4.322l23.592,16.39C669.518,1169.979,673.729,1179.325,678.5,1184.778z
				 M626.098,1260.202l-5.765,8.301l-8.3-5.768C615.904,1259.381,621.301,1258.398,626.098,1260.202z M647.212,1214.409
				c7.178-10.328,4.604-24.625-5.726-31.802c-10.331-7.176-24.625-4.601-31.803,5.728c-7.175,10.328-4.602,24.625,5.728,31.802
				S640.037,1224.739,647.212,1214.409z M641.441,1210.396c-5.01,7.21-14.811,8.977-22.021,3.967
				c-7.208-5.008-8.973-14.81-3.965-22.019c5.011-7.209,14.81-8.972,22.017-3.964
				C644.682,1193.39,646.448,1203.189,641.441,1210.396z M660.176,1174.188c3.298-4.75,2.105-11.38-2.646-14.679
				c-4.75-3.302-11.375-2.104-14.676,2.645c-3.302,4.749-2.105,11.377,2.642,14.678
				C650.245,1180.131,656.874,1178.937,660.176,1174.188z M614.043,1240.59c3.3-4.751,2.105-11.38-2.646-14.679
				c-4.746-3.299-11.377-2.107-14.675,2.643c-3.302,4.748-2.105,11.378,2.643,14.677
				C604.112,1246.533,610.742,1245.337,614.043,1240.59z M654.402,1170.177c-1.134,1.629-3.267,2.013-4.895,0.881
				c-1.628-1.131-2.013-3.263-0.881-4.893c1.132-1.629,3.265-2.012,4.892-0.882C655.148,1166.414,655.532,1168.548,654.402,1170.177
				z M608.269,1236.576c-1.129,1.63-3.265,2.015-4.895,0.882c-1.624-1.13-2.011-3.262-0.879-4.892
				c1.13-1.628,3.263-2.011,4.891-0.882C609.017,1232.816,609.402,1234.949,608.269,1236.576z M644.818,1139.976
				c-3.859,3.34-9.236,4.34-14.02,2.566l5.766-8.301L644.818,1139.976z M576.621,1238.134l-8.254-5.737l5.767-8.299
				C577.467,1227.962,578.407,1233.351,576.621,1238.134z"/>
		</g>
	</g>
	<g>
		<g transform="translate(0,-952.36218)">
			<path fill="#CAE8D9" d="M579.905,1147.79c-0.633-1.616-2.587-2.58-4.255-2.097l-67.609,19.288
				c-1.771,0.505-2.921,2.575-2.417,4.346l34.721,121.697c0.506,1.77,2.576,2.924,4.346,2.416l31.215-8.906l34.364-9.43
				c1.783,0.426,3.797-0.799,4.236-2.58 M582.143,1213.297c-3.449-12.095-16.144-19.155-28.242-15.704
				c-12.096,3.452-19.153,16.147-15.704,28.242c3.451,12.093,16.146,19.153,28.242,15.705
				C578.535,1238.09,585.594,1225.393,582.143,1213.297z M575.382,1215.225c2.409,8.442-2.431,17.145-10.872,19.554
				c-8.441,2.407-17.145-2.432-19.554-10.873c-2.408-8.44,2.432-17.143,10.873-19.553
				C564.272,1201.945,572.974,1206.785,575.382,1215.225z M559.221,1177.797c-1.588-5.56-7.474-8.834-13.035-7.248
				c-5.566,1.586-8.834,7.475-7.25,13.034c1.587,5.562,7.474,8.835,13.036,7.25C557.534,1189.245,560.806,1183.359,559.221,1177.797
				z M581.402,1255.549c-1.587-5.561-7.475-8.834-13.034-7.246c-5.562,1.586-8.836,7.473-7.249,13.034
				c1.587,5.558,7.473,8.832,13.035,7.246C579.716,1266.996,582.988,1261.109,581.402,1255.549z M552.46,1179.725
				c0.543,1.907-0.511,3.802-2.417,4.344c-1.907,0.547-3.801-0.507-4.345-2.414c-0.544-1.908,0.51-3.801,2.416-4.347
				C550.021,1176.767,551.916,1177.82,552.46,1179.725z M574.642,1257.476c0.544,1.908-0.509,3.801-2.415,4.344
				c-1.907,0.543-3.802-0.507-4.346-2.415c-0.544-1.905,0.51-3.798,2.414-4.344C572.204,1254.517,574.099,1255.567,574.642,1257.476
				z"/>
		</g>
		<g transform="translate(0,-952.36218)">
			<path fill="#383E47" d="M579.902,1147.791c-0.63-1.617-2.584-2.58-4.255-2.097l-67.607,19.288
				c-1.769,0.506-2.919,2.575-2.415,4.346l34.721,121.697c0.506,1.77,2.576,2.924,4.345,2.414l31.214-8.904l34.367-9.43
				c1.783,0.426,3.797-0.799,4.234-2.582 M594.49,1198.922l-7.729-27.096 M605.041,1235.895l-8.62-30.212 M584.817,1165.01
				c-0.033-0.142-2.669-9.348-2.669-9.348 M574.198,1153.418l2.773,9.717c-5.125,0.155-9.912-2.518-12.492-6.944L574.198,1153.418z
				 M579.021,1170.319l23.238,81.451c-8.073,3.838-12.882,12.452-11.91,21.335l-27.622,7.879
				c-3.85-8.043-12.455-12.828-21.317-11.854l-23.33-81.766c8.044-3.85,12.827-12.455,11.854-21.317l27.625-7.881
				C561.877,1167.901,571.777,1170.559,579.021,1170.319z M604.215,1258.635l2.777,9.722l-9.721,2.771
				C597.126,1266.006,599.783,1261.207,604.215,1258.635z M582.143,1213.297c-3.449-12.095-16.145-19.154-28.242-15.703
				c-12.096,3.452-19.153,16.146-15.704,28.242c3.451,12.093,16.146,19.153,28.242,15.705
				C578.535,1238.088,585.594,1225.393,582.143,1213.297z M575.381,1215.224c2.409,8.442-2.429,17.146-10.872,19.555
				c-8.44,2.407-17.145-2.433-19.554-10.872c-2.408-8.443,2.434-17.144,10.875-19.553
				C564.271,1201.947,572.974,1206.785,575.381,1215.224z M559.221,1177.797c-1.588-5.56-7.476-8.834-13.036-7.247
				c-5.564,1.585-8.833,7.473-7.247,13.035s7.473,8.834,13.035,7.249C557.531,1189.246,560.806,1183.359,559.221,1177.797z
				 M581.402,1255.549c-1.587-5.561-7.475-8.834-13.035-7.246c-5.56,1.586-8.834,7.473-7.247,13.031
				c1.584,5.563,7.473,8.835,13.035,7.249C579.716,1266.998,582.988,1261.109,581.402,1255.549z M552.459,1179.726
				c0.542,1.908-0.51,3.803-2.416,4.346c-1.907,0.545-3.801-0.509-4.345-2.416c-0.544-1.908,0.51-3.801,2.414-4.346
				C550.02,1176.765,551.915,1177.818,552.459,1179.726z M574.642,1257.477c0.545,1.905-0.509,3.801-2.417,4.345
				c-1.904,0.541-3.799-0.509-4.343-2.417c-0.544-1.905,0.51-3.798,2.414-4.344C572.204,1254.517,574.099,1255.568,574.642,1257.477
				z M523.015,1168.021c0.142,5.102-2.488,9.897-6.891,12.476l-2.774-9.717L523.015,1168.021z M555.809,1282.958l-9.667,2.756
				l-2.773-9.717C548.471,1275.862,553.235,1278.548,555.809,1282.958z"/>
		</g>
	</g>
	<g>
		<path fill="#383E47" d="M703.853,161.454c-0.209-0.268-0.434-0.512-0.675-0.73c0.061-0.547,0.096-1.101,0.096-1.658
			c0-5.116-6.329-14.938-11.775-22.449c7.56-5.366,11.775-13.276,11.775-22.417c0-16.211-12.831-28.436-29.847-28.436H508.253
			c-17.015,0-29.846,12.228-29.846,28.436c0,8.947,4.043,16.709,11.29,22.068c-1.397,1.584-2.996,3.443-4.611,5.391
			c-8.764,10.637-9.974,14.648-9.974,17.407c0,1.838,0.342,3.624,0.981,5.327c-4.717,7.384-7.2,15.862-7.2,24.728v168.124
			c0,25.385,20.652,46.039,46.039,46.039h152.112c25.379,0,46.038-20.652,46.038-46.039V189.116
			C713.082,179.048,709.89,169.483,703.853,161.454z M500.228,140.349h157.916c2.914,0,5.285-2.363,5.285-5.281
			c0-2.914-2.371-5.285-5.285-5.285c0,0-155.665,0-158.9,0c-3.235,0-10.27-7.162-10.27-15.58c0-10.189,8.291-17.866,19.277-17.866
			h165.173c10.989,0,19.276,7.681,19.276,17.866c0,8.993-6.124,13.703-11.265,16.066c-2.259,1.041-3.478,3.503-2.949,5.934
			c0.237,1.086,0.8,2.032,1.565,2.745c6.397,8.421,12.203,17.696,12.648,20.237c-0.014,0.579-0.137,1.139-0.359,1.672l0,0
			c-0.724,1.7-2.383,2.797-4.237,2.797c-2.529,0-4.587-2.053-4.587-4.583c0-8.354-6.795-15.153-15.155-15.153
			c-8.351,0-15.153,6.798-15.153,15.153c0,2.529-2.064,4.583-4.582,4.583c-2.531,0-4.583-2.053-4.583-4.583
			c0-8.354-6.805-15.153-15.162-15.153c-8.352,0-15.157,6.798-15.157,15.153c0,2.529-2.054,4.583-4.583,4.583
			c-2.537,0-4.59-2.053-4.59-4.583c0-8.354-6.798-15.153-15.153-15.153c-8.357,0-15.155,6.798-15.155,15.153
			c0,2.529-2.061,4.583-4.583,4.583c-2.533,0-4.591-2.053-4.591-4.583c0-8.354-6.795-15.153-15.148-15.153
			c-8.357,0-15.159,6.798-15.159,15.153c0,2.529-2.058,4.583-4.58,4.583c-2.534,0-4.587-2.053-4.587-4.583
			c0-8.354-6.798-15.153-15.155-15.153c-8.439,0-15.58,6.943-15.58,15.153c0,2.529-2.057,4.583-4.583,4.583
			c-1.852,0-3.51-1.097-4.234-2.797l0,0c-0.204-0.494-0.321-1.016-0.349-1.553C486.452,156.663,492.865,148.333,500.228,140.349z
			 M702.515,357.248c0,19.559-15.914,35.473-35.473,35.473H514.937c-19.559,0-35.474-15.914-35.474-35.473V189.124
			c0-5.828,1.394-11.441,4.054-16.493c2.057,1.02,4.35,1.583,6.75,1.583c8.357,0,15.152-6.795,15.152-15.149
			c0-2.402,2.389-4.586,5.009-4.586c2.534,0,4.587,2.057,4.587,4.586c0,8.354,6.798,15.149,15.153,15.149
			c8.351,0,15.146-6.795,15.146-15.149c0-2.533,2.063-4.586,4.594-4.586c2.529,0,4.579,2.057,4.579,4.586
			c0,8.354,6.802,15.149,15.16,15.149c8.354,0,15.156-6.795,15.156-15.149c0-2.533,2.058-4.586,4.59-4.586
			c2.529,0,4.587,2.057,4.587,4.586c0,8.354,6.795,15.149,15.148,15.149c8.358,0,15.161-6.795,15.161-15.149
			c0-2.533,2.061-4.586,4.59-4.586c2.525,0,4.586,2.057,4.586,4.586c0,8.354,6.795,15.149,15.155,15.149
			c8.354,0,15.145-6.795,15.145-15.149c0-2.533,2.064-4.586,4.592-4.586c2.525,0,4.59,2.057,4.59,4.586
			c0,8.354,6.797,15.149,15.156,15.149c3.484,0,6.77-1.188,9.395-3.263c3.281,5.472,5.002,11.685,5.002,18.166v168.128h0.018
			V357.248z"/>
		<path fill="#383E47" d="M681.757,209.808H500.221c-2.917,0-5.281,2.367-5.281,5.281v117.643c0,2.916,2.364,5.283,5.281,5.283
			h181.536c2.918,0,5.281-2.367,5.281-5.283V215.089C687.038,212.175,684.675,209.808,681.757,209.808z M676.469,327.455H505.505
			V220.375h170.966v107.081H676.469z"/>
	</g>
	<rect x="505.505" y="220.375" fill="#FFFFFF" width="170.966" height="107.081"/>
</g>
<g id="hryvnia">
	<path fill="#383E47" d="M569.53,271.327v-8.593h23.1c0.924-0.862,1.724-2.001,2.403-3.419c0.677-1.416,1.016-2.802,1.016-4.158
		c0-3.449-2.465-5.175-7.392-5.175c-2.464,0-4.573,0.263-6.329,0.786c-1.756,0.524-3.373,1.155-4.852,1.894l-3.419-9.055
		c0.984-0.492,1.987-0.938,3.003-1.34c1.016-0.4,2.139-0.753,3.372-1.062c1.232-0.307,2.695-0.539,4.389-0.693
		c1.693-0.153,3.742-0.231,6.145-0.231c5.419,0,9.547,1.017,12.382,3.049c2.832,2.033,4.25,5.144,4.25,9.333
		c0,1.972-0.386,3.897-1.155,5.775c-0.771,1.88-1.618,3.312-2.541,4.297h7.207v8.593H569.53z M611.11,276.594v8.593h-23.007
		c-0.864,0.863-1.618,2.002-2.264,3.419c-0.646,1.418-0.971,2.742-0.971,3.973c0,1.603,0.677,2.881,2.033,3.834
		c1.354,0.957,3.696,1.433,7.022,1.433c3.264,0,5.867-0.291,7.807-0.878c1.94-0.584,3.589-1.246,4.944-1.986l2.68,9.055
		c-1.541,0.864-3.697,1.664-6.469,2.402c-2.772,0.74-6.684,1.109-11.734,1.109c-5.792,0-10.227-1.109-13.306-3.326
		c-3.082-2.218-4.62-5.545-4.62-9.98c0-0.984,0.106-1.954,0.323-2.91c0.215-0.954,0.492-1.848,0.832-2.68
		c0.337-0.832,0.677-1.524,1.016-2.079c0.338-0.554,0.63-1.016,0.878-1.386h-6.746v-8.593H611.11z"/>
</g>
<g>
	<g>
		<path fill="#F2EF99" d="M1127.826,161.456c-0.208-0.268-0.435-0.512-0.674-0.73c0.06-0.547,0.096-1.101,0.096-1.658
			c0-5.116-6.329-14.938-11.776-22.449c7.56-5.366,11.776-13.276,11.776-22.417c0-16.211-12.832-28.436-29.847-28.436H932.227
			c-17.016,0-29.847,12.228-29.847,28.436c0,8.947,4.043,16.709,11.289,22.068c-1.396,1.584-2.994,3.443-4.611,5.391
			c-8.764,10.637-9.973,14.648-9.973,17.407c0,1.838,0.342,3.624,0.98,5.327c-4.717,7.384-7.2,15.862-7.2,24.728v168.124
			c0,25.383,20.653,46.039,46.04,46.039h152.113c25.377,0,46.037-20.652,46.037-46.039V189.118
			C1137.056,179.05,1133.862,169.485,1127.826,161.456z M1126.489,357.248c0,19.561-15.915,35.475-35.475,35.475H938.909
			c-19.56,0-35.475-15.914-35.475-35.475V189.125c0-5.828,1.394-11.441,4.055-16.493c2.056,1.02,4.35,1.583,6.748,1.583
			c8.357,0,15.152-6.795,15.152-15.149c0-2.402,2.389-4.586,5.011-4.586c2.532,0,4.586,2.057,4.586,4.586
			c0,8.354,6.798,15.149,15.153,15.149c8.35,0,15.145-6.795,15.145-15.149c0-2.533,2.064-4.586,4.594-4.586s4.58,2.057,4.58,4.586
			c0,8.354,6.802,15.149,15.159,15.149c8.354,0,15.157-6.795,15.157-15.149c0-2.533,2.057-4.586,4.59-4.586
			c2.529,0,4.586,2.057,4.586,4.586c0,8.354,6.795,15.149,15.148,15.149c8.358,0,15.16-6.795,15.16-15.149
			c0-2.533,2.061-4.586,4.59-4.586c2.526,0,4.587,2.057,4.587,4.586c0,8.354,6.795,15.149,15.155,15.149
			c8.355,0,15.146-6.795,15.146-15.149c0-2.533,2.064-4.586,4.59-4.586c2.526,0,4.59,2.057,4.59,4.586
			c0,8.354,6.799,15.149,15.157,15.149c3.485,0,6.77-1.188,9.395-3.263c3.281,5.472,5.003,11.685,5.003,18.166v168.128h0.018
			V357.248z"/>
		<path fill="#F2EF99" d="M1105.73,209.81H924.193c-2.917,0-5.281,2.367-5.281,5.281v117.641c0,2.918,2.364,5.285,5.281,5.285
			h181.537c2.917,0,5.281-2.367,5.281-5.285V215.091C1111.012,212.177,1108.647,209.81,1105.73,209.81z M1100.442,327.455H929.479
			V220.376h170.967v107.079H1100.442z"/>
	</g>
	<g>
		<g transform="translate(0,-952.36218)">
			<path fill="#CAE8D9" d="M902.884,1321.505c0.311,1.104,1.197,2.029,2.287,2.387l67.398,22.121
				c0.512,1.658,2.391,2.764,4.09,2.406l68.848-14.246c1.802-0.375,3.104-2.352,2.73-4.156l-25.645-123.927
				c-0.373-1.803-2.352-3.104-4.154-2.73l-31.789,6.579l-39.577-12.902c-1.747-0.558-3.845,0.517-4.413,2.26l-39.758,120.129
				C902.687,1320.095,902.681,1320.831,902.884,1321.505z M936.772,1311.8c1.172,5.662,6.801,9.361,12.465,8.189
				c5.662-1.172,9.361-6.801,8.189-12.463c-1.172-5.664-6.801-9.363-12.463-8.191C939.3,1300.507,935.602,1306.136,936.772,1311.8z
				 M943.656,1310.374c-0.401-1.941,0.79-3.752,2.731-4.154c1.942-0.402,3.752,0.789,4.154,2.73
				c0.401,1.941-0.788,3.752-2.729,4.154C945.87,1313.505,944.058,1312.315,943.656,1310.374z M975.173,1280.518
				c2.549,12.316,14.688,20.295,27.005,17.746c12.318-2.549,20.295-14.689,17.746-27.006c-2.548-12.316-14.688-20.295-27.007-17.747
				C980.601,1256.061,972.624,1268.202,975.173,1280.518z M982.058,1279.095c-1.779-8.596,3.689-16.918,12.285-18.696
				c8.597-1.78,16.918,3.688,18.697,12.284c1.778,8.596-3.689,16.918-12.287,18.697
				C992.157,1293.159,983.836,1287.69,982.058,1279.095z M995.413,1317.614c1.172,5.662,6.801,9.361,12.464,8.191
				c5.665-1.172,9.362-6.803,8.19-12.465c-1.172-5.664-6.801-9.363-12.465-8.191C997.94,1306.321,994.242,1311.95,995.413,1317.614z
				 M979.03,1238.438c1.172,5.663,6.801,9.362,12.463,8.189c5.664-1.172,9.363-6.801,8.191-12.463
				c-1.173-5.664-6.801-9.362-12.466-8.19C981.558,1227.146,977.858,1232.775,979.03,1238.438z M1002.297,1316.19
				c-0.401-1.943,0.79-3.754,2.731-4.156c1.942-0.402,3.752,0.789,4.155,2.73c0.401,1.943-0.789,3.752-2.731,4.154
				C1004.511,1319.321,1002.698,1318.132,1002.297,1316.19z M985.913,1237.014c-0.401-1.943,0.789-3.753,2.73-4.155
				c1.943-0.401,3.754,0.788,4.156,2.73c0.402,1.941-0.789,3.752-2.73,4.153C988.128,1240.144,986.315,1238.956,985.913,1237.014z"
				/>
		</g>
		<g transform="translate(0,-952.36218)">
			<path fill="#383E47" d="M902.884,1321.505c0.311,1.104,1.197,2.029,2.287,2.387l67.4,22.121c0.51,1.658,2.389,2.764,4.088,2.406
				l68.85-14.246c1.801-0.375,3.102-2.352,2.729-4.156l-25.645-123.927c-0.373-1.803-2.352-3.104-4.154-2.73l-31.789,6.578
				l-39.577-12.901c-1.746-0.558-3.845,0.517-4.411,2.261l-39.76,120.128C902.688,1320.095,902.682,1320.831,902.884,1321.505z
				 M910.684,1318.263l3.072-9.273c4.521,2.576,6.621,7.01,6.492,12.398L910.684,1318.263z M915.963,1302.307l26.685-80.572
				c1.414,0.229,2.858,0.307,4.258,0.241l5.676,27.431c-11.322,3.279-18.475,14.812-16.047,26.543
				c2.428,11.73,13.57,19.48,25.264,17.994l5.709,27.592c-5.722,1.541-10.635,5.465-13.383,10.959l-26.957-8.836
				C927.937,1314.819,924.028,1306.356,915.963,1302.307z M936.772,1311.8c1.172,5.662,6.803,9.361,12.465,8.189
				s9.362-6.801,8.189-12.465c-1.172-5.662-6.801-9.361-12.463-8.189C939.301,1300.507,935.602,1306.136,936.772,1311.8z
				 M943.657,1310.374c-0.402-1.941,0.789-3.754,2.73-4.154c1.942-0.402,3.752,0.789,4.154,2.73
				c0.401,1.941-0.788,3.752-2.729,4.154S944.06,1312.315,943.657,1310.374z M943.419,1274.524
				c-1.656-8.002,3.006-15.761,10.587-18.232l6.366,30.767C952.435,1287.802,945.075,1282.526,943.419,1274.524z M960.926,1334.735
				c1.835-3.092,4.749-5.252,8.017-6.258c0.021,0.143,1.971,9.52,1.971,9.52L960.926,1334.735z M944.888,1214.933l3.347-10.115
				l10.04,3.25C955.334,1212.477,950.048,1215.254,944.888,1214.933z M978.677,1340.821l-2.049-9.896
				c5.121,0.225,9.699,3.244,11.947,7.848L978.677,1340.821z M975.115,1323.61l-17.163-82.942
				c8.334-3.233,13.768-11.466,13.449-20.396l28.131-5.821c3.245,8.306,11.473,13.711,20.384,13.395l17.229,83.264
				c-8.305,3.246-13.711,11.473-13.395,20.383l-28.131,5.82C992.031,1327.288,982.356,1323.905,975.115,1323.61z M956.505,1233.675
				l-2.048-9.896l9.898-2.048C964.12,1226.848,961.115,1231.438,956.505,1233.675z M975.173,1280.518
				c2.549,12.316,14.689,20.295,27.006,17.746c12.317-2.549,20.294-14.689,17.745-27.006c-2.548-12.316-14.688-20.295-27.005-17.747
				C980.602,1256.062,972.624,1268.202,975.173,1280.518z M961.639,1215.113c1.358-1.42,2.553-3.003,3.501-4.764l7.58,2.471
				L961.639,1215.113z M982.059,1279.095c-1.78-8.596,3.688-16.918,12.286-18.697c8.595-1.779,16.917,3.689,18.696,12.287
				c1.777,8.596-3.69,16.916-12.286,18.695S983.837,1287.69,982.059,1279.095z M995.413,1317.614
				c1.172,5.662,6.803,9.361,12.465,8.189c5.664-1.17,9.361-6.801,8.189-12.463c-1.17-5.664-6.801-9.363-12.463-8.191
				S994.242,1311.95,995.413,1317.614z M979.03,1238.438c1.172,5.663,6.802,9.362,12.464,8.189c5.663-1.172,9.362-6.801,8.19-12.463
				c-1.172-5.664-6.801-9.362-12.464-8.191C981.558,1227.145,977.858,1232.775,979.03,1238.438z M1002.298,1316.19
				c-0.401-1.943,0.789-3.754,2.731-4.156c1.941-0.402,3.751,0.789,4.154,2.73c0.401,1.943-0.789,3.752-2.729,4.154
				C1004.511,1319.321,1002.7,1318.132,1002.298,1316.19z M985.915,1237.013c-0.402-1.941,0.789-3.753,2.73-4.154
				c1.941-0.401,3.752,0.788,4.154,2.73c0.402,1.941-0.789,3.752-2.73,4.154C988.128,1240.144,986.316,1238.955,985.915,1237.013z
				 M1030.796,1330.036c0.236-5.1,3.213-9.688,7.796-11.934l2.048,9.896L1030.796,1330.036z M1006.577,1212.993l9.844-2.037
				l2.048,9.896C1013.371,1220.611,1008.817,1217.581,1006.577,1212.993z"/>
		</g>
	</g>
	<g>
		<g transform="translate(0,-952.36218)">
			<path fill="#CAE8D9" d="M976.278,1315.354c0.216,1.127,1.02,2.123,2.076,2.572l65.266,27.789
				c0.367,1.697,2.146,2.959,3.869,2.746l69.812-8.32c1.827-0.219,3.292-2.08,3.075-3.908l-14.979-125.662
				c-0.219-1.829-2.081-3.293-3.908-3.075l-32.234,3.843l-38.332-16.231c-1.692-0.705-3.875,0.187-4.59,1.875l-49.86,116.3
				C976.202,1313.932,976.134,1314.665,976.278,1315.354z M1010.872,1308.575c0.685,5.742,5.977,9.906,11.721,9.223
				c5.74-0.686,9.907-5.979,9.223-11.719c-0.685-5.744-5.979-9.908-11.719-9.225
				C1014.353,1297.54,1010.188,1302.831,1010.872,1308.575z M1017.852,1307.741c-0.233-1.969,1.107-3.67,3.077-3.906
				c1.969-0.234,3.67,1.107,3.906,3.074c0.232,1.971-1.105,3.672-3.074,3.906C1019.79,1311.052,1018.087,1309.71,1017.852,1307.741z
				 M1051.8,1280.682c1.488,12.49,12.902,21.475,25.394,19.986c12.491-1.49,21.474-12.904,19.985-25.395
				c-1.488-12.488-12.904-21.474-25.395-19.985C1059.294,1256.778,1050.312,1268.194,1051.8,1280.682z M1058.78,1279.852
				c-1.039-8.717,5.119-16.542,13.836-17.581c8.718-1.039,16.543,5.12,17.582,13.835c1.039,8.717-5.119,16.541-13.838,17.58
				C1067.645,1294.727,1059.819,1288.569,1058.78,1279.852z M1068.802,1319.372c0.686,5.74,5.979,9.906,11.721,9.223
				c5.744-0.684,9.908-5.979,9.225-11.721c-0.685-5.742-5.979-9.908-11.721-9.225
				C1072.284,1308.335,1068.118,1313.628,1068.802,1319.372z M1059.233,1239.085c0.684,5.742,5.978,9.908,11.719,9.223
				c5.743-0.684,9.91-5.978,9.224-11.719c-0.685-5.742-5.978-9.908-11.721-9.223
				C1062.714,1228.05,1058.548,1233.343,1059.233,1239.085z M1075.782,1318.538c-0.233-1.969,1.107-3.672,3.076-3.906
				c1.97-0.236,3.672,1.105,3.907,3.074c0.234,1.969-1.106,3.672-3.075,3.906S1076.018,1320.507,1075.782,1318.538z
				 M1066.213,1238.253c-0.235-1.97,1.106-3.672,3.075-3.907c1.969-0.234,3.672,1.105,3.907,3.075
				c0.235,1.968-1.106,3.67-3.074,3.905C1068.151,1241.562,1066.447,1240.224,1066.213,1238.253z"/>
		</g>
		<g transform="translate(0,-952.36218)">
			<path fill="#383E47" d="M976.278,1315.354c0.216,1.127,1.02,2.123,2.076,2.572l65.268,27.789
				c0.365,1.697,2.145,2.959,3.869,2.746l69.812-8.32c1.827-0.219,3.291-2.08,3.074-3.908l-14.979-125.662
				c-0.219-1.829-2.08-3.293-3.907-3.075l-32.233,3.842l-38.334-16.23c-1.691-0.705-3.875,0.187-4.588,1.876l-49.861,116.299
				C976.204,1313.932,976.136,1314.665,976.278,1315.354z M984.327,1312.79l3.851-8.977c4.286,2.951,6,7.547,5.411,12.906
				L984.327,1312.79z M990.948,1297.343l33.459-78.002c1.39,0.349,2.822,0.549,4.222,0.603l3.315,27.816
				c-11.561,2.3-19.67,13.182-18.252,25.076c1.418,11.895,11.858,20.568,23.636,20.084l3.335,27.98
				c-5.832,1.045-11.062,4.537-14.268,9.775l-26.105-11.104C1001.81,1310.829,998.64,1302.065,990.948,1297.343z M1010.872,1308.575
				c0.685,5.742,5.979,9.908,11.721,9.223c5.74-0.686,9.908-5.977,9.223-11.721c-0.684-5.74-5.979-9.906-11.719-9.223
				C1014.354,1297.54,1010.188,1302.831,1010.872,1308.575z M1017.853,1307.741c-0.234-1.969,1.106-3.672,3.076-3.906
				c1.969-0.234,3.67,1.107,3.906,3.074c0.232,1.971-1.105,3.672-3.074,3.906C1019.79,1311.052,1018.088,1309.71,1017.853,1307.741z
				 M1020.674,1272.003c-0.968-8.114,4.339-15.447,12.103-17.262l3.719,31.198
				C1028.523,1285.999,1021.641,1280.118,1020.674,1272.003z M1032.98,1333.487c2.093-2.924,5.18-4.828,8.521-5.551
				c0.01,0.145,1.152,9.652,1.152,9.652L1032.98,1333.487z M1027.22,1212.754l4.197-9.793l9.726,4.096
				C1037.837,1211.199,1032.334,1213.513,1027.22,1212.754z M1050.147,1341.065l-1.197-10.035c5.084,0.66,9.388,4.059,11.234,8.838
				L1050.147,1341.065z M1048.067,1323.612l-10.027-84.103c8.581-2.511,14.695-10.25,15.143-19.175l28.523-3.4
				c2.525,8.553,10.262,14.64,19.168,15.085l10.064,84.428c-8.553,2.527-14.641,10.264-15.086,19.168l-28.523,3.4
				C1064.608,1328.722,1055.257,1324.524,1048.067,1323.612z M1037.196,1232.419l-1.197-10.035l10.037-1.196
				C1045.366,1226.266,1041.981,1230.583,1037.196,1232.419z M1051.8,1280.682c1.488,12.49,12.904,21.475,25.395,19.986
				c12.49-1.49,21.473-12.904,19.984-25.395c-1.488-12.488-12.904-21.474-25.395-19.985
				C1059.296,1256.78,1050.312,1268.194,1051.8,1280.682z M1043.894,1214.363c1.477-1.299,2.801-2.775,3.896-4.449l7.34,3.108
				L1043.894,1214.363z M1058.782,1279.854c-1.039-8.719,5.117-16.544,13.836-17.583c8.716-1.039,16.541,5.12,17.582,13.837
				c1.037,8.715-5.121,16.539-13.838,17.578S1059.821,1288.569,1058.782,1279.854z M1068.802,1319.372
				c0.686,5.74,5.98,9.908,11.723,9.223c5.742-0.684,9.906-5.979,9.223-11.721c-0.684-5.744-5.979-9.908-11.721-9.225
				C1072.285,1308.335,1068.118,1313.628,1068.802,1319.372z M1059.233,1239.085c0.684,5.742,5.979,9.908,11.721,9.223
				c5.741-0.684,9.908-5.978,9.223-11.719c-0.685-5.742-5.979-9.908-11.72-9.224
				C1062.714,1228.049,1058.548,1233.343,1059.233,1239.085z M1075.783,1318.538c-0.233-1.969,1.107-3.674,3.076-3.906
				c1.969-0.236,3.671,1.105,3.906,3.074c0.234,1.969-1.106,3.672-3.073,3.906
				C1077.722,1321.847,1076.019,1320.507,1075.783,1318.538z M1066.215,1238.253c-0.236-1.969,1.104-3.672,3.074-3.907
				c1.968-0.234,3.671,1.105,3.906,3.075c0.235,1.968-1.106,3.67-3.074,3.905
				C1068.151,1241.562,1066.448,1240.222,1066.215,1238.253z M1102.997,1334.765c0.67-5.061,4.027-9.377,8.785-11.225l1.197,10.035
				L1102.997,1334.765z M1088.851,1216.083l9.98-1.189l1.197,10.035C1094.97,1224.252,1090.69,1220.845,1088.851,1216.083z"/>
		</g>
	</g>
	<g>
		<g transform="translate(0,-952.36218)">
			<path fill="#CAE8D9" d="M1074.397,1144.11c-0.915-1.473-3.014-2.068-4.564-1.292l-63.002,31.206
				c-1.65,0.816-2.406,3.06-1.59,4.711l56.171,113.402c0.817,1.65,3.062,2.408,4.712,1.588l29.088-14.408l32.091-15.492
				c1.829,0.097,3.588-1.472,3.698-3.303 M1088.452,1208.131c-5.581-11.271-19.344-15.918-30.618-10.333
				c-11.271,5.584-15.914,19.346-10.331,30.618c5.582,11.269,19.346,15.916,30.617,10.333
				C1089.391,1233.166,1094.036,1219.402,1088.452,1208.131z M1082.152,1211.251c3.897,7.867,0.714,17.301-7.155,21.2
				c-7.864,3.895-17.299,0.709-21.196-7.156c-3.896-7.865-0.712-17.3,7.155-21.197S1078.256,1203.386,1082.152,1211.251z
				 M1059.483,1177.365c-2.568-5.181-8.949-7.336-14.131-4.769c-5.186,2.567-7.336,8.95-4.771,14.13
				c2.568,5.183,8.95,7.336,14.133,4.771C1059.896,1188.93,1062.05,1182.549,1059.483,1177.365z M1095.372,1249.82
				c-2.569-5.185-8.951-7.337-14.132-4.77c-5.183,2.567-7.337,8.95-4.771,14.131c2.566,5.18,8.949,7.335,14.132,4.769
				C1095.784,1261.383,1097.937,1255,1095.372,1249.82z M1053.184,1180.485c0.88,1.776,0.187,3.832-1.591,4.71
				c-1.776,0.883-3.83,0.189-4.711-1.588c-0.879-1.778-0.186-3.83,1.59-4.711C1050.251,1178.017,1052.304,1178.71,1053.184,1180.485
				z M1089.07,1252.937c0.88,1.779,0.188,3.832-1.589,4.712c-1.777,0.878-3.83,0.189-4.711-1.59
				c-0.881-1.775-0.186-3.828,1.589-4.708C1086.138,1250.468,1088.191,1251.161,1089.07,1252.937z"/>
		</g>
		<g transform="translate(0,-952.36218)">
			<path fill="#383E47" d="M1074.394,1144.111c-0.911-1.475-3.01-2.069-4.564-1.292l-63,31.205
				c-1.648,0.818-2.404,3.061-1.588,4.712l56.171,113.402c0.817,1.65,3.062,2.408,4.71,1.59l29.088-14.406l32.093-15.496
				c1.829,0.097,3.588-1.472,3.696-3.304 M1097.995,1191.757l-12.506-25.248 M1115.062,1226.211l-13.943-28.152 M1082.343,1160.158
				c-0.057-0.133-4.314-8.711-4.314-8.711 M1069.802,1150.678l4.486,9.055c-5.012,1.08-10.204-0.682-13.543-4.567L1069.802,1150.678
				z M1077.603,1166.428l37.598,75.898c-7.248,5.237-10.416,14.578-7.854,23.138l-25.739,12.75
				c-5.243-7.215-14.57-10.363-23.112-7.801l-37.741-76.194c7.216-5.242,10.362-14.569,7.802-23.11l25.742-12.751
				C1060.306,1167.152,1070.522,1167.974,1077.603,1166.428z M1118.367,1248.726l4.486,9.056l-9.056,4.486
				C1112.728,1257.257,1114.472,1252.058,1118.367,1248.726z M1088.452,1208.131c-5.581-11.271-19.345-15.917-30.617-10.333
				c-11.271,5.584-15.915,19.346-10.332,30.618c5.582,11.269,19.346,15.916,30.616,10.334
				C1089.391,1233.166,1094.036,1219.402,1088.452,1208.131z M1082.151,1211.25c3.896,7.867,0.715,17.302-7.154,21.199
				c-7.864,3.896-17.301,0.711-21.196-7.155c-3.896-7.867-0.712-17.3,7.153-21.196
				C1068.822,1200.203,1078.256,1203.386,1082.151,1211.25z M1059.483,1177.365c-2.568-5.181-8.95-7.337-14.133-4.768
				c-5.184,2.566-7.334,8.947-4.768,14.13c2.565,5.184,8.948,7.335,14.131,4.77
				C1059.895,1188.931,1062.05,1182.549,1059.483,1177.365z M1095.372,1249.82c-2.569-5.185-8.951-7.337-14.133-4.769
				c-5.182,2.565-7.336,8.948-4.768,14.128c2.563,5.184,8.947,7.336,14.129,4.77C1095.784,1261.384,1097.937,1255,1095.372,1249.82z
				 M1053.184,1180.485c0.879,1.779,0.187,3.833-1.591,4.712c-1.776,0.881-3.83,0.188-4.711-1.59
				c-0.879-1.778-0.186-3.83,1.589-4.71C1050.248,1178.016,1052.302,1178.709,1053.184,1180.485z M1089.069,1252.938
				c0.882,1.775,0.188,3.833-1.59,4.713c-1.775,0.876-3.828,0.187-4.709-1.592c-0.881-1.775-0.186-3.828,1.589-4.708
				C1086.138,1250.468,1088.191,1251.161,1089.069,1252.938z M1022.107,1174.303c1.063,4.992-0.656,10.185-4.521,13.518
				l-4.486-9.056L1022.107,1174.303z M1075.159,1281.407l-9.008,4.461l-4.486-9.057
				C1066.657,1275.757,1071.833,1277.536,1075.159,1281.407z"/>
		</g>
	</g>
	<g>
		<g transform="translate(0,-952.36218)">
			<path fill="#CAE8D9" d="M1024.789,1151.415c0.327-1.705-0.811-3.562-2.479-4.044l-67.468-19.776
				c-1.768-0.519-3.845,0.618-4.363,2.385l-35.594,121.444c-0.518,1.766,0.617,3.846,2.385,4.363l31.152,9.129l34.092,10.369
				c1.28,1.312,3.637,1.352,4.959,0.078 M991.718,1208.005c3.538-12.069-3.428-24.815-15.5-28.354
				c-12.072-3.537-24.816,3.431-28.355,15.501c-3.536,12.068,3.43,24.815,15.5,28.355
				C975.434,1227.044,988.179,1220.076,991.718,1208.005z M984.971,1206.026c-2.469,8.425-11.206,13.202-19.631,10.733
				c-8.423-2.47-13.2-11.208-10.731-19.631c2.469-8.422,11.207-13.199,19.631-10.731
				C982.665,1188.866,987.439,1197.603,984.971,1206.026z M991.282,1165.749c1.624-5.55-1.605-11.461-7.155-13.086
				c-5.553-1.629-11.46,1.605-13.087,7.152c-1.627,5.551,1.604,11.46,7.153,13.088
				C983.744,1174.53,989.652,1171.299,991.282,1165.749z M968.539,1243.339c1.626-5.55-1.606-11.46-7.155-13.085
				c-5.548-1.627-11.46,1.604-13.086,7.153c-1.625,5.547,1.605,11.458,7.156,13.085
				C961.003,1252.119,966.911,1248.887,968.539,1243.339z M984.535,1163.771c-0.559,1.902-2.462,2.943-4.363,2.383
				c-1.903-0.555-2.942-2.457-2.386-4.36c0.559-1.903,2.46-2.942,4.363-2.386C984.052,1159.968,985.091,1161.87,984.535,1163.771z
				 M961.794,1241.36c-0.559,1.905-2.461,2.942-4.361,2.386c-1.903-0.56-2.945-2.459-2.387-4.363c0.557-1.902,2.459-2.94,4.36-2.384
				C961.312,1237.557,962.353,1239.456,961.794,1241.36z"/>
		</g>
		<g transform="translate(0,-952.36218)">
			<path fill="#383E47" d="M1024.786,1151.414c0.33-1.704-0.808-3.562-2.479-4.044l-67.467-19.776
				c-1.766-0.516-3.843,0.619-4.361,2.386l-35.594,121.444c-0.518,1.766,0.617,3.846,2.385,4.361l31.148,9.13l34.096,10.369
				c1.28,1.312,3.637,1.352,4.959,0.078 M1009.831,1202.438l7.927-27.039 M999.019,1239.336l8.836-30.149 M1019.753,1168.599
				c0.047-0.137,2.732-9.329,2.732-9.329 M1016.96,1153.128l-2.844,9.697c-4.414-2.604-7.037-7.419-6.856-12.54L1016.96,1153.128z
				 M1012.017,1169.993l-23.822,81.282c-8.877-1.063-17.541,3.652-21.459,11.684l-27.564-8.08
				c1.039-8.857-3.686-17.496-11.699-21.402l23.913-81.596c8.858,1.039,17.495-3.685,21.403-11.699l27.566,8.08
				C998.81,1158.799,1005.763,1166.331,1012.017,1169.993z M986.183,1258.126l-2.84,9.701l-9.699-2.844
				C976.253,1260.575,981.062,1257.934,986.183,1258.126z M991.718,1208.005c3.538-12.069-3.43-24.815-15.502-28.354
				c-12.07-3.537-24.814,3.431-28.354,15.5c-3.536,12.068,3.43,24.815,15.5,28.354
				C975.434,1227.043,988.179,1220.076,991.718,1208.005z M984.971,1206.025c-2.47,8.425-11.206,13.203-19.632,10.733
				c-8.422-2.469-13.199-11.208-10.732-19.63c2.471-8.424,11.209-13.199,19.633-10.73
				C982.662,1188.868,987.438,1197.603,984.971,1206.025z M991.282,1165.749c1.624-5.55-1.606-11.461-7.156-13.087
				c-5.552-1.629-11.458,1.604-13.086,7.155c-1.628,5.549,1.604,11.458,7.153,13.086
				C983.742,1174.529,989.652,1171.299,991.282,1165.749z M968.539,1243.339c1.626-5.55-1.606-11.46-7.155-13.085
				c-5.548-1.627-11.46,1.604-13.084,7.152c-1.63,5.55,1.604,11.459,7.153,13.086
				C961.003,1252.121,966.911,1248.887,968.539,1243.339z M984.534,1163.771c-0.56,1.903-2.461,2.944-4.363,2.385
				c-1.902-0.557-2.941-2.459-2.385-4.362c0.559-1.903,2.46-2.942,4.361-2.386C984.052,1159.966,985.091,1161.868,984.534,1163.771z
				 M961.792,1241.361c-0.555,1.902-2.459,2.942-4.363,2.383c-1.899-0.558-2.941-2.458-2.383-4.361
				c0.557-1.902,2.459-2.94,4.36-2.384C961.312,1237.557,962.353,1239.457,961.792,1241.361z M965.882,1138.158
				c-2.603,4.39-7.387,7.042-12.485,6.872l2.841-9.698L965.882,1138.158z M932.267,1252.855l-9.646-2.828l2.842-9.698
				C929.849,1242.939,932.444,1247.752,932.267,1252.855z"/>
		</g>
	</g>
	<g>
		<path fill="#383E47" d="M1127.826,161.455c-0.208-0.268-0.435-0.512-0.674-0.73c0.06-0.546,0.096-1.101,0.096-1.658
			c0-5.116-6.329-14.938-11.776-22.448c7.56-5.366,11.776-13.276,11.776-22.417c0-16.211-12.832-28.435-29.847-28.435H932.227
			c-17.016,0-29.847,12.228-29.847,28.435c0,8.947,4.043,16.709,11.289,22.068c-1.396,1.584-2.994,3.443-4.611,5.391
			c-8.764,10.637-9.973,14.648-9.973,17.407c0,1.838,0.342,3.624,0.98,5.327c-4.717,7.384-7.2,15.862-7.2,24.728v168.125
			c0,25.383,20.653,46.039,46.04,46.039h152.113c25.377,0,46.037-20.652,46.037-46.039V189.118
			C1137.056,179.049,1133.862,169.485,1127.826,161.455z M924.2,140.351h157.917c2.915,0,5.285-2.364,5.285-5.282
			c0-2.914-2.37-5.285-5.285-5.285c0,0-155.665,0-158.901,0c-3.234,0-10.27-7.162-10.27-15.58c0-10.189,8.291-17.866,19.277-17.866
			h165.174c10.989,0,19.276,7.681,19.276,17.866c0,8.993-6.124,13.703-11.265,16.066c-2.258,1.041-3.479,3.503-2.949,5.934
			c0.236,1.086,0.801,2.032,1.566,2.745c6.396,8.421,12.203,17.697,12.647,20.237c-0.014,0.579-0.138,1.14-0.359,1.672l0,0
			c-0.724,1.701-2.382,2.798-4.237,2.798c-2.529,0-4.586-2.053-4.586-4.583c0-8.354-6.795-15.153-15.156-15.153
			c-8.352,0-15.153,6.798-15.153,15.153c0,2.53-2.063,4.583-4.583,4.583c-2.529,0-4.583-2.053-4.583-4.583
			c0-8.354-6.806-15.153-15.163-15.153c-8.351,0-15.156,6.798-15.156,15.153c0,2.53-2.053,4.583-4.583,4.583
			c-2.536,0-4.59-2.053-4.59-4.583c0-8.354-6.798-15.153-15.153-15.153c-8.357,0-15.156,6.798-15.156,15.153
			c0,2.53-2.06,4.583-4.582,4.583c-2.533,0-4.59-2.053-4.59-4.583c0-8.354-6.795-15.153-15.15-15.153
			c-8.357,0-15.158,6.798-15.158,15.153c0,2.53-2.058,4.583-4.58,4.583c-2.533,0-4.587-2.053-4.587-4.583
			c0-8.354-6.798-15.153-15.155-15.153c-8.439,0-15.58,6.943-15.58,15.153c0,2.53-2.057,4.583-4.583,4.583
			c-1.853,0-3.511-1.097-4.233-2.798l0,0c-0.205-0.494-0.321-1.016-0.35-1.552C910.424,156.664,916.837,148.334,924.2,140.351z
			 M1126.489,357.248c0,19.561-15.915,35.475-35.475,35.475H938.909c-19.56,0-35.475-15.914-35.475-35.475V189.125
			c0-5.828,1.394-11.441,4.055-16.493c2.056,1.02,4.35,1.584,6.748,1.584c8.357,0,15.152-6.795,15.152-15.149
			c0-2.402,2.389-4.586,5.011-4.586c2.532,0,4.586,2.057,4.586,4.586c0,8.354,6.798,15.149,15.153,15.149
			c8.35,0,15.145-6.795,15.145-15.149c0-2.533,2.064-4.586,4.594-4.586s4.58,2.057,4.58,4.586c0,8.354,6.802,15.149,15.159,15.149
			c8.354,0,15.157-6.795,15.157-15.149c0-2.533,2.057-4.586,4.59-4.586c2.529,0,4.586,2.057,4.586,4.586
			c0,8.354,6.795,15.149,15.148,15.149c8.358,0,15.16-6.795,15.16-15.149c0-2.533,2.061-4.586,4.59-4.586
			c2.526,0,4.587,2.057,4.587,4.586c0,8.354,6.795,15.149,15.155,15.149c8.355,0,15.146-6.795,15.146-15.149
			c0-2.533,2.064-4.586,4.59-4.586c2.526,0,4.59,2.057,4.59,4.586c0,8.354,6.799,15.149,15.157,15.149
			c3.485,0,6.77-1.189,9.395-3.263c3.281,5.472,5.003,11.685,5.003,18.166v168.128h0.018V357.248z"/>
		<path fill="#383E47" d="M1105.73,209.81H924.193c-2.917,0-5.281,2.367-5.281,5.282v117.641c0,2.918,2.364,5.285,5.281,5.285
			h181.537c2.917,0,5.281-2.367,5.281-5.285V215.091C1111.012,212.177,1108.647,209.81,1105.73,209.81z M1100.442,327.455H929.479
			V220.376h170.967v107.079H1100.442z"/>
	</g>
	<rect x="929.479" y="220.376" fill="#FFFFFF" width="170.967" height="107.079"/>
</g>
<g id="euro">
	<path fill="#383E47" d="M1039.031,301.452c-3.142,1.755-8.501,3.512-14.415,3.512c-9.055,0-17.371-3.697-22.547-10.534
		c-2.494-3.142-4.342-7.115-5.174-12.012h-6.006v-6.561h5.082c0-0.462,0-1.017,0-1.571c0-0.924,0.092-1.848,0.092-2.772h-5.174
		v-6.561h6.191c1.2-4.99,3.418-9.24,6.375-12.659c5.268-5.914,12.66-9.425,21.346-9.425c5.636,0,10.533,1.293,13.86,2.772
		l-2.587,10.534c-2.402-1.017-6.191-2.218-10.258-2.218c-4.435,0-8.5,1.479-11.365,4.99c-1.293,1.478-2.311,3.604-2.957,6.006
		h23.009v6.561h-24.396c-0.091,0.924-0.091,1.94-0.091,2.865c0,0.554,0,0.924,0,1.479h24.486v6.561h-23.193
		c0.647,2.772,1.663,4.897,3.049,6.468c2.958,3.327,7.3,4.713,11.921,4.713c4.25,0,8.593-1.387,10.533-2.403L1039.031,301.452z"/>
</g>
<rect id="_x3C_Slice_x3E_" x="-407.5" y="-32.5" fill="none" width="2008" height="560"/>
</svg>
